<svg width="678" height="283" viewBox="0 0 678 283" fill="none" xmlns="http://www.w3.org/2000/svg">
<path d="M278.821 24.7807L278.888 36.5227L281.443 36.5081C281.677 36.5067 281.845 36.5526 281.947 36.6458C282.049 36.7312 282.101 36.848 282.102 36.9965C282.102 37.1371 282.052 37.2546 281.951 37.3489C281.85 37.4432 281.683 37.4911 281.448 37.4924L275.343 37.5274C275.108 37.5287 274.94 37.4828 274.838 37.3896C274.736 37.2965 274.685 37.1796 274.684 37.039C274.683 36.8905 274.733 36.773 274.834 36.6865C274.935 36.5922 275.103 36.5444 275.337 36.543L277.892 36.5284L277.825 24.7864L273.793 24.8095L273.813 28.2196C273.814 28.4618 273.768 28.6339 273.675 28.736C273.59 28.8381 273.473 28.8895 273.325 28.8904C273.184 28.8912 273.066 28.841 272.972 28.74C272.878 28.639 272.83 28.4674 272.829 28.2252L272.803 23.8308L283.831 23.7676L283.856 28.1621C283.857 28.4043 283.811 28.5764 283.718 28.6785C283.633 28.7805 283.516 28.832 283.367 28.8328C283.219 28.8337 283.098 28.7836 283.003 28.6826C282.917 28.5815 282.873 28.4099 282.871 28.1677L282.852 24.7576L278.821 24.7807ZM291.585 27.2858L291.599 29.7701C292.874 28.6065 293.827 27.8589 294.458 27.5271C295.096 27.1875 295.685 27.0162 296.224 27.0131C296.81 27.0098 297.354 27.2059 297.857 27.6014C298.367 27.9891 298.622 28.2846 298.623 28.4877C298.624 28.6361 298.574 28.7614 298.473 28.8635C298.38 28.9578 298.259 29.0054 298.111 29.0062C298.033 29.0067 297.966 28.9954 297.911 28.9722C297.856 28.9413 297.754 28.852 297.605 28.7045C297.33 28.4326 297.091 28.2465 296.887 28.1461C296.683 28.0457 296.484 27.996 296.289 27.9971C295.859 27.9996 295.34 28.1744 294.733 28.5217C294.133 28.8689 293.091 29.7147 291.607 31.0591L291.638 36.4497L295.997 36.4247C296.239 36.4233 296.411 36.4692 296.513 36.5624C296.615 36.6477 296.667 36.7646 296.668 36.9131C296.669 37.0537 296.618 37.1712 296.517 37.2655C296.416 37.3598 296.245 37.4077 296.003 37.4091L288.28 37.4533C288.046 37.4546 287.877 37.4126 287.775 37.3273C287.673 37.2341 287.622 37.1172 287.621 36.9766C287.62 36.8438 287.667 36.7341 287.76 36.6477C287.861 36.5533 288.032 36.5055 288.275 36.5041L290.653 36.4905L290.607 28.2875L288.79 28.2979C288.556 28.2992 288.388 28.2533 288.285 28.1601C288.183 28.067 288.132 27.9462 288.131 27.7977C288.13 27.6571 288.176 27.5397 288.27 27.4454C288.371 27.3511 288.542 27.3032 288.784 27.3018L291.585 27.2858ZM310.065 37.3286L310.057 35.9106C308.634 37.1219 307.11 37.7322 305.485 37.7415C304.305 37.7483 303.382 37.4567 302.714 36.8667C302.047 36.269 301.711 35.5365 301.706 34.6694C301.7 33.7162 302.133 32.8817 303.004 32.1658C303.875 31.4498 305.15 31.0871 306.83 31.0775C307.283 31.0749 307.775 31.1033 308.307 31.1627C308.838 31.2144 309.413 31.3009 310.031 31.4224L310.022 29.8287C310.019 29.2896 309.766 28.8223 309.264 28.4268C308.762 28.0312 308.01 27.8363 307.01 27.842C306.245 27.8464 305.172 28.0752 303.792 28.5284C303.542 28.608 303.382 28.6479 303.312 28.6483C303.187 28.6491 303.077 28.6028 302.983 28.5096C302.897 28.4163 302.853 28.2994 302.852 28.1588C302.851 28.026 302.89 27.9203 302.967 27.8417C303.076 27.7239 303.517 27.5612 304.289 27.3537C305.506 27.0186 306.427 26.8492 307.052 26.8456C308.294 26.8385 309.264 27.1416 309.963 27.7548C310.662 28.3602 311.014 29.0496 311.018 29.823L311.055 36.3385L312.368 36.331C312.61 36.3296 312.782 36.3755 312.884 36.4687C312.986 36.554 313.038 36.6709 313.039 36.8193C313.039 36.96 312.989 37.0774 312.888 37.1718C312.787 37.2661 312.616 37.314 312.373 37.3153L310.065 37.3286ZM310.037 32.4302C309.575 32.3 309.086 32.2052 308.57 32.1456C308.054 32.0861 307.511 32.0579 306.941 32.0612C305.511 32.0694 304.396 32.3844 303.595 33.0062C302.988 33.4706 302.686 34.0231 302.69 34.6637C302.694 35.2575 302.927 35.7561 303.39 36.1597C303.861 36.5633 304.542 36.7625 305.433 36.7574C306.284 36.7525 307.072 36.5801 307.797 36.24C308.529 35.892 309.28 35.3447 310.049 34.5981L310.037 32.4302ZM318.409 27.1322L318.417 28.6204C319.101 27.9212 319.719 27.4372 320.272 27.1684C320.826 26.8996 321.45 26.7632 322.145 26.7592C322.895 26.7549 323.58 26.9112 324.199 27.2279C324.638 27.4598 325.034 27.8482 325.389 28.393C325.751 28.93 325.934 29.4837 325.938 30.054L325.973 36.2531L326.805 36.2483C327.039 36.247 327.208 36.2929 327.31 36.3861C327.412 36.4714 327.463 36.5883 327.464 36.7367C327.465 36.8774 327.415 36.9948 327.314 37.0892C327.213 37.1835 327.045 37.2313 326.811 37.2327L324.174 37.2478C323.932 37.2492 323.76 37.2033 323.658 37.1101C323.555 37.0169 323.504 36.9 323.503 36.7594C323.502 36.611 323.552 36.4935 323.654 36.407C323.755 36.3127 323.926 36.2648 324.168 36.2634L324.989 36.2587L324.954 30.2237C324.95 29.5284 324.693 28.9439 324.182 28.4702C323.672 27.9888 322.991 27.7505 322.139 27.7554C321.491 27.7591 320.929 27.8951 320.454 28.1635C319.979 28.424 319.303 29.0763 318.426 30.1204L318.461 36.2961L319.575 36.2897C319.809 36.2884 319.977 36.3343 320.079 36.4275C320.181 36.5128 320.233 36.6297 320.234 36.7781C320.235 36.9188 320.184 37.0362 320.083 37.1306C319.982 37.2249 319.815 37.2727 319.58 37.2741L316.369 37.2925C316.135 37.2938 315.967 37.2479 315.865 37.1547C315.763 37.0616 315.711 36.9447 315.71 36.804C315.71 36.6556 315.76 36.5381 315.861 36.4516C315.962 36.3573 316.129 36.3094 316.364 36.3081L317.477 36.3017L317.43 28.1339L316.598 28.1387C316.364 28.14 316.196 28.0941 316.094 28.0009C315.991 27.9078 315.94 27.787 315.939 27.6385C315.938 27.4979 315.988 27.3804 316.089 27.2861C316.191 27.1918 316.358 27.1439 316.593 27.1426L318.409 27.1322ZM339.26 27.6573C339.259 27.4308 339.305 27.2665 339.398 27.1644C339.491 27.0623 339.608 27.0108 339.748 27.01C339.897 27.0092 340.018 27.0592 340.113 27.1603C340.207 27.2613 340.255 27.4329 340.256 27.6751L340.266 29.3625C340.267 29.5969 340.221 29.7652 340.128 29.8672C340.035 29.9693 339.914 30.0208 339.766 30.0217C339.633 30.0224 339.519 29.9801 339.425 29.8947C339.339 29.8093 339.287 29.6689 339.27 29.4737C339.221 29.0052 338.976 28.6199 338.537 28.3177C337.894 27.8839 337.045 27.67 335.99 27.6761C334.889 27.6824 334.035 27.9099 333.428 28.3587C332.969 28.6973 332.741 29.0736 332.743 29.4877C332.746 29.9564 333.021 30.3454 333.57 30.6548C333.946 30.8714 334.658 31.0353 335.706 31.1465C337.074 31.2871 338.024 31.4496 338.556 31.6341C339.316 31.9032 339.88 32.2789 340.25 32.7611C340.628 33.2433 340.818 33.7657 340.822 34.3282C340.826 35.1641 340.428 35.9125 339.627 36.5733C338.826 37.2264 337.649 37.5574 336.094 37.5663C334.539 37.5752 333.264 37.1879 332.267 36.4046C332.268 36.6702 332.254 36.8421 332.223 36.9204C332.192 36.9987 332.134 37.0655 332.048 37.1207C331.971 37.1758 331.881 37.2037 331.779 37.2042C331.639 37.205 331.521 37.1549 331.427 37.0539C331.333 36.9529 331.285 36.7852 331.283 36.5508L331.272 34.5235C331.27 34.2891 331.312 34.1209 331.398 34.0189C331.491 33.9168 331.612 33.8653 331.76 33.8644C331.901 33.8636 332.018 33.9137 332.113 34.0148C332.215 34.1079 332.266 34.2366 332.267 34.4006C332.269 34.76 332.361 35.0602 332.542 35.3014C332.817 35.6748 333.253 35.9848 333.848 36.2314C334.451 36.4702 335.186 36.5871 336.053 36.5821C337.334 36.5748 338.286 36.331 338.908 35.8509C339.531 35.3708 339.84 34.8651 339.837 34.3338C339.834 33.7245 339.515 33.238 338.88 32.8744C338.237 32.5109 337.302 32.2702 336.075 32.1522C334.855 32.0342 333.979 31.8751 333.447 31.6751C332.915 31.475 332.499 31.1727 332.2 30.7681C331.9 30.3636 331.749 29.9269 331.747 29.4582C331.742 28.6145 332.152 27.9441 332.977 27.4472C333.803 26.9425 334.789 26.6868 335.938 26.6802C337.297 26.6725 338.405 26.9982 339.26 27.6573ZM350.89 22.3875L350.969 36.11L354.836 36.0878C355.078 36.0864 355.25 36.1323 355.352 36.2255C355.454 36.3109 355.506 36.4277 355.507 36.5762C355.507 36.7168 355.457 36.8343 355.356 36.9286C355.255 37.0229 355.084 37.0708 354.841 37.0722L346.123 37.1221C345.888 37.1234 345.72 37.0775 345.618 36.9844C345.516 36.8912 345.465 36.7743 345.464 36.6337C345.463 36.4852 345.513 36.3678 345.614 36.2813C345.715 36.1869 345.883 36.1391 346.117 36.1377L349.984 36.1156L349.911 23.3893L347.076 23.4055C346.841 23.4068 346.669 23.3609 346.559 23.2678C346.457 23.1747 346.406 23.0538 346.405 22.9054C346.404 22.7648 346.454 22.6473 346.555 22.553C346.656 22.4587 346.828 22.4108 347.07 22.4094L350.89 22.3875ZM367.72 36.9984L367.712 35.5805C366.289 36.7918 364.765 37.4021 363.14 37.4114C361.961 37.4181 361.037 37.1266 360.37 36.5366C359.702 35.9389 359.366 35.2064 359.361 34.3392C359.356 33.3861 359.788 32.5516 360.659 31.8357C361.53 31.1197 362.805 30.757 364.485 30.7473C364.938 30.7447 365.431 30.7732 365.962 30.8326C366.494 30.8843 367.068 30.9708 367.686 31.0923L367.677 29.4986C367.674 28.9595 367.421 28.4922 366.919 28.0966C366.417 27.7011 365.666 27.5061 364.666 27.5119C363.9 27.5163 362.827 27.7451 361.447 28.1983C361.197 28.2778 361.038 28.3178 360.967 28.3182C360.842 28.3189 360.733 28.2727 360.638 28.1795C360.552 28.0862 360.508 27.9693 360.507 27.8287C360.507 27.6958 360.545 27.5902 360.623 27.5116C360.731 27.3938 361.172 27.2311 361.944 27.0235C363.161 26.6884 364.082 26.5191 364.707 26.5155C365.949 26.5084 366.92 26.8115 367.618 27.4247C368.317 28.03 368.669 28.7194 368.673 29.4929L368.711 36.0084L370.023 36.0009C370.265 35.9995 370.437 36.0454 370.54 36.1385C370.642 36.2239 370.693 36.3408 370.694 36.4892C370.695 36.6298 370.645 36.7473 370.544 36.8417C370.443 36.936 370.271 36.9838 370.029 36.9852L367.72 36.9984ZM367.692 32.1001C367.23 31.9699 366.742 31.8751 366.226 31.8155C365.71 31.756 365.167 31.7278 364.596 31.7311C363.167 31.7393 362.051 32.0543 361.25 32.676C360.643 33.1405 360.342 33.693 360.345 34.3336C360.349 34.9273 360.582 35.426 361.045 35.8296C361.516 36.2332 362.197 36.4324 363.088 36.4273C363.939 36.4224 364.728 36.2499 365.452 35.9098C366.185 35.5619 366.935 35.0146 367.705 34.268L367.692 32.1001ZM377.224 26.7954L382.568 26.7648C382.802 26.7635 382.971 26.8094 383.073 26.9026C383.175 26.9957 383.226 27.1165 383.227 27.265C383.228 27.4056 383.178 27.5231 383.077 27.6174C382.976 27.7117 382.808 27.7596 382.574 27.7609L377.23 27.7915L377.268 34.3422C377.271 34.9125 377.5 35.3877 377.955 35.7679C378.419 36.1481 379.092 36.3357 379.974 36.3306C380.638 36.3268 381.357 36.225 382.129 36.0253C382.901 35.8178 383.501 35.5878 383.93 35.3353C384.085 35.2328 384.214 35.1813 384.316 35.1807C384.44 35.18 384.55 35.2302 384.644 35.3312C384.739 35.4244 384.786 35.5374 384.787 35.6702C384.788 35.7874 384.738 35.8971 384.637 35.9992C384.388 36.2585 383.78 36.5432 382.813 36.8534C381.854 37.1558 380.933 37.3095 380.05 37.3146C378.902 37.3211 377.986 37.0569 377.304 36.5217C376.621 35.9865 376.277 35.2619 376.272 34.3479L376.234 27.7972L374.418 27.8076C374.183 27.8089 374.015 27.763 373.913 27.6699C373.811 27.5767 373.759 27.4559 373.759 27.3075C373.758 27.1668 373.808 27.0494 373.909 26.955C374.01 26.8607 374.178 26.8129 374.412 26.8115L376.228 26.8011L376.212 23.8949C376.21 23.6606 376.256 23.4923 376.349 23.3902C376.443 23.2881 376.559 23.2367 376.7 23.2359C376.849 23.235 376.97 23.2851 377.064 23.3861C377.159 23.4872 377.206 23.6548 377.208 23.8892L377.224 26.7954ZM394.117 21.6478L394.132 24.1908L392.679 24.1991L392.664 21.6562L394.117 21.6478ZM394.181 26.6983L394.234 35.8622L398.101 35.8401C398.343 35.8387 398.515 35.8846 398.617 35.9778C398.719 36.0631 398.771 36.18 398.772 36.3285C398.772 36.4691 398.722 36.5866 398.621 36.6809C398.52 36.7752 398.349 36.8231 398.106 36.8245L389.388 36.8744C389.153 36.8757 388.985 36.8298 388.883 36.7366C388.781 36.6435 388.73 36.5266 388.729 36.386C388.728 36.2375 388.778 36.12 388.879 36.0335C388.98 35.9392 389.148 35.8914 389.382 35.89L393.249 35.8679L393.203 27.7L390.331 27.7165C390.097 27.7178 389.925 27.6719 389.815 27.5788C389.713 27.4856 389.661 27.3688 389.661 27.2281C389.66 27.0797 389.71 26.9583 389.811 26.864C389.912 26.7697 390.084 26.7218 390.326 26.7204L394.181 26.6983ZM413.605 31.6849C413.613 33.1848 413.081 34.4691 412.009 35.5378C410.945 36.6064 409.655 37.1451 408.14 37.1537C406.608 37.1625 405.305 36.6387 404.228 35.5824C403.152 34.5182 402.609 33.24 402.601 31.7479C402.592 30.2479 403.12 28.9636 404.184 27.895C405.248 26.8186 406.546 26.276 408.077 26.2672C409.593 26.2585 410.889 26.7824 411.965 27.8387C413.05 28.895 413.596 30.1771 413.605 31.6849ZM412.608 31.6906C412.601 30.4562 412.154 29.408 411.266 28.5459C410.386 27.6837 409.321 27.2562 408.071 27.2633C406.821 27.2705 405.757 27.7141 404.88 28.5941C404.01 29.4663 403.578 30.5157 403.585 31.7422C403.592 32.961 404.036 34.0053 404.916 34.8753C405.803 35.7452 406.872 36.1766 408.122 36.1694C409.372 36.1623 410.432 35.7226 411.302 34.8504C412.18 33.9704 412.616 32.9171 412.608 31.6906ZM419.306 26.5545L419.314 28.0427C419.998 27.3435 420.616 26.8595 421.169 26.5907C421.722 26.3219 422.347 26.1855 423.042 26.1815C423.792 26.1772 424.476 26.3335 425.095 26.6502C425.534 26.8821 425.931 27.2705 426.286 27.8153C426.648 28.3523 426.831 28.906 426.834 29.4763L426.87 35.6754L427.702 35.6706C427.936 35.6693 428.104 35.7152 428.207 35.8084C428.309 35.8937 428.36 36.0106 428.361 36.159C428.362 36.2997 428.312 36.4171 428.211 36.5115C428.11 36.6058 427.942 36.6536 427.707 36.655L425.071 36.6701C424.829 36.6715 424.656 36.6256 424.554 36.5324C424.452 36.4392 424.401 36.3223 424.4 36.1817C424.399 36.0333 424.449 35.9158 424.55 35.8293C424.651 35.735 424.823 35.6871 425.065 35.6857L425.885 35.681L425.851 29.646C425.847 28.9507 425.59 28.3662 425.079 27.8925C424.569 27.4111 423.887 27.1728 423.036 27.1777C422.388 27.1814 421.826 27.3174 421.351 27.5858C420.876 27.8463 420.2 28.4986 419.323 29.5427L419.358 35.7184L420.471 35.712C420.706 35.7107 420.874 35.7566 420.976 35.8497C421.078 35.9351 421.13 36.052 421.131 36.2004C421.131 36.3411 421.081 36.4585 420.98 36.5529C420.879 36.6472 420.711 36.695 420.477 36.6964L417.266 36.7148C417.032 36.7161 416.864 36.6702 416.762 36.577C416.659 36.4839 416.608 36.367 416.607 36.2263C416.606 36.0779 416.656 35.9604 416.758 35.8739C416.859 35.7796 417.026 35.7317 417.261 35.7304L418.374 35.724L418.327 27.5562L417.495 27.561C417.261 27.5623 417.092 27.5164 416.99 27.4232C416.888 27.33 416.837 27.2092 416.836 27.0608C416.835 26.9202 416.885 26.8027 416.986 26.7084C417.087 26.6141 417.255 26.5662 417.489 26.5649L419.306 26.5545Z" fill="#1E1E1E" fill-opacity="0.15"/>
<path d="M14.4023 96H11.4141C10.9766 96 10.625 95.9375 10.3594 95.8125C10.0938 95.6875 9.89844 95.5156 9.77344 95.2969C9.64844 95.0703 9.57031 94.8594 9.53906 94.6641C9.51563 94.4609 9.46875 93.8203 9.39844 92.7422L8.35547 93.6211C6.79297 93.5586 5.76563 93.4727 5.27344 93.3633C4.78906 93.2539 4.54688 93.1406 4.54688 93.0234C4.54688 92.3906 4.74219 91.7734 5.13281 91.1719C5.53125 90.5703 6.88672 89.9453 9.19922 89.2969C9.11328 88.3438 8.99219 87.6953 8.83594 87.3516L9.84375 86.0039C10 88.6758 10.207 91.4141 10.4648 94.2188C10.6211 94.4453 10.8477 94.5586 11.1445 94.5586H14.4023V96ZM9.35156 91.9219L9.24609 90.1758C8.44922 90.3555 7.67969 90.6094 6.9375 90.9375C6.19531 91.2578 5.82422 91.5547 5.82422 91.8281C5.82422 91.9141 5.89453 91.9805 6.03516 92.0273C6.17578 92.0664 6.51172 92.1172 7.04297 92.1797C7.57422 92.2422 7.98047 92.2734 8.26172 92.2734C8.46484 92.2734 8.82813 92.1562 9.35156 91.9219ZM8.78906 83.3555L7.52344 84.6328L6.23438 83.332L7.52344 82.0547L8.69531 83.2266L9.97266 81.9609L11.2617 83.2383L9.97266 84.5391L8.78906 83.3555ZM28.8164 94.5586V96H28.4063C27.7813 96 27.2422 95.8555 26.7891 95.5664C26.3359 95.2773 25.8906 94.6133 25.4531 93.5742C25.1328 94.1914 24.7383 94.7656 24.2695 95.2969C23.8086 95.8203 23.4492 96.0781 23.1914 96.0703C22.6289 95.5156 21.9805 94.9961 21.2461 94.5117C20.1367 95.5039 19.0273 96 17.918 96H14.4141V94.5586H15.082C17.0742 94.5586 18.4766 94.4922 19.2891 94.3594C20.1016 94.2188 20.625 93.9375 20.8594 93.5156L21.7383 91.0547C22.0273 90.2344 22.3398 89.6016 22.6758 89.1562C23.0195 88.7109 23.3672 88.4883 23.7188 88.4883C25 88.4883 25.6523 89.5 25.6758 91.5234C25.707 93.5469 26.5859 94.5586 28.3125 94.5586H28.8164ZM23.8711 94.6523C24.418 94.0508 24.6914 93.2891 24.6914 92.3672C24.6914 91.7578 24.5938 91.2383 24.3984 90.8086C24.2031 90.3789 23.9297 90.168 23.5781 90.1758C23.375 90.168 23.0742 90.5391 22.6758 91.2891C22.2773 92.0312 21.9922 92.6562 21.8203 93.1641C22.6172 93.625 23.3008 94.1211 23.8711 94.6523ZM42.8789 91.2891L42.2812 92.7656C41.0859 92.7656 40.2344 92.7969 39.7266 92.8594C39.2266 92.9141 38.7109 93.0664 38.1797 93.3164C37.6562 93.5664 37.0703 93.9258 36.4219 94.3945C35.5547 95.0195 34.8516 95.4453 34.3125 95.6719C33.7734 95.8906 32.9062 96 31.7109 96H28.8281V94.5586H32.9648C33.5977 94.5586 34.625 94.1289 36.0469 93.2695C37.6406 92.3008 38.6914 91.75 39.1992 91.6172C37.2773 90.3125 36.0273 89.6602 35.4492 89.6602C34.8555 89.6602 34.3828 89.9219 34.0312 90.4453C33.9609 90.5469 33.8789 90.5977 33.7852 90.5977C33.7148 90.5977 33.6797 90.5273 33.6797 90.3867C33.6797 89.9648 33.8984 89.5195 34.3359 89.0508C34.7812 88.5742 35.3359 88.3359 36 88.3359C36.5469 88.3359 37.1953 88.5938 37.9453 89.1094L39.8789 90.4102C40.2539 90.6602 40.707 90.8711 41.2383 91.043C41.7773 91.207 42.3242 91.2891 42.8789 91.2891ZM37.7227 99.5039L36.4453 100.793L35.1445 99.5039L36.4453 98.2266L37.7227 99.5039ZM56.2852 96C55.6602 96 55.1719 95.8984 54.8203 95.6953C54.4766 95.4844 54.1797 95.1094 53.9297 94.5703C53.7969 96.3906 53.2109 97.9062 52.1719 99.1172C51.1328 100.336 50.125 100.945 49.1484 100.945C48.3203 100.945 47.6562 100.871 47.1562 100.723L44.9883 100.078C44.6133 99.9688 44.4258 99.8086 44.4258 99.5977C44.4258 99.3945 44.5234 99.293 44.7188 99.293C44.7734 99.293 45.1172 99.3516 45.75 99.4688C46.3828 99.5859 47.043 99.6445 47.7305 99.6445C48.5117 99.6445 49.3672 99.3281 50.2969 98.6953C51.2266 98.0625 51.957 97.3633 52.4883 96.5977C53.0195 95.832 53.2852 95.2422 53.2852 94.8281C53.2852 94.2188 53.2148 93.582 53.0742 92.918C52.9414 92.2539 52.5273 91.3203 51.832 90.1172L52.5703 88.125C53.1797 89.0703 53.6094 90.5 53.8594 92.4141C54.1484 93.8438 54.957 94.5586 56.2852 94.5586H57.6445V96H56.2852ZM57.6562 96V94.5586H68.0273C68.582 94.5586 69.1523 94.4336 69.7383 94.1836C70.332 93.9336 70.6289 93.6797 70.6289 93.4219C70.6289 92.0312 70.2227 90.8906 69.4102 90L70.207 88.0078C71.1133 89.3672 71.5664 90.7969 71.5664 92.2969C71.5664 93.0938 71.3125 93.9102 70.8047 94.7461C70.2969 95.582 69.6797 96 68.9531 96H57.6562ZM69.2578 84.5625L67.9922 85.8398L66.7031 84.5391L67.9922 83.2617L69.1641 84.4336L70.4414 83.168L71.7305 84.4453L70.4414 85.7461L69.2578 84.5625Z" fill="#1E1E1E" fill-opacity="0.15"/>
<path d="M4.16424 252.907L4.19652 258.544L11.7667 258.5L11.7501 255.594C11.7487 255.36 11.7907 255.192 11.8761 255.09C11.9693 254.988 12.0901 254.936 12.2385 254.935C12.3869 254.934 12.5044 254.984 12.5909 255.086C12.6852 255.187 12.7331 255.354 12.7344 255.589L12.7567 259.479L1.8936 259.541C1.65923 259.543 1.49099 259.497 1.38889 259.404C1.2868 259.311 1.23534 259.194 1.23454 259.053C1.23369 258.905 1.2838 258.787 1.38487 258.701C1.48589 258.606 1.65359 258.558 1.88796 258.557L3.21216 258.549L3.14493 246.807L1.82073 246.815C1.58636 246.816 1.41815 246.774 1.31609 246.689C1.21399 246.596 1.16252 246.475 1.16167 246.327C1.16082 246.178 1.21093 246.061 1.312 245.974C1.41302 245.88 1.58072 245.832 1.81509 245.831L12.1626 245.771L12.182 249.158C12.1833 249.392 12.1374 249.561 12.0442 249.663C11.9589 249.765 11.842 249.816 11.6935 249.817C11.5451 249.818 11.4237 249.768 11.3294 249.667C11.2429 249.566 11.199 249.398 11.1976 249.164L11.1839 246.761L4.12928 246.802L4.15861 251.923L7.68589 251.903L7.67952 250.789C7.67818 250.555 7.72409 250.387 7.81726 250.285C7.91042 250.183 8.03122 250.131 8.17966 250.13C8.32028 250.129 8.43776 250.18 8.53209 250.281C8.62642 250.382 8.67425 250.549 8.67559 250.784L8.69398 253.995C8.69532 254.229 8.64941 254.397 8.55624 254.499C8.46308 254.601 8.34618 254.653 8.20556 254.654C8.05712 254.654 7.93574 254.604 7.84141 254.503C7.74708 254.402 7.69924 254.235 7.6979 254L7.69153 252.887L4.16424 252.907ZM26.559 244.693L26.6376 258.415L27.95 258.408C28.1922 258.406 28.3644 258.452 28.4665 258.546C28.5685 258.631 28.62 258.748 28.6208 258.896C28.6216 259.037 28.5715 259.154 28.4705 259.249C28.3695 259.343 28.1979 259.391 27.9557 259.392L25.6471 259.405L25.6359 257.448C24.5042 259.017 23.0595 259.807 21.3017 259.817C20.4111 259.822 19.5543 259.593 18.7314 259.129C17.9161 258.657 17.2677 257.985 16.7862 257.112C16.3124 256.24 16.0729 255.339 16.0676 254.409C16.0622 253.472 16.2914 252.568 16.7552 251.698C17.2267 250.821 17.8674 250.141 18.6771 249.66C19.4947 249.179 20.3527 248.936 21.2511 248.93C22.9698 248.921 24.4196 249.694 25.6004 251.249L25.5686 245.695L24.2561 245.702C24.0139 245.704 23.8418 245.658 23.7397 245.565C23.6376 245.471 23.5861 245.351 23.5853 245.202C23.5845 245.062 23.6346 244.944 23.7356 244.85C23.8366 244.755 24.0082 244.708 24.2504 244.706L26.559 244.693ZM25.6182 254.355C25.611 253.105 25.1831 252.052 24.3345 251.198C23.4858 250.343 22.4795 249.919 21.3154 249.926C20.1436 249.933 19.1382 250.368 18.2994 251.232C17.4606 252.097 17.0448 253.154 17.0519 254.404C17.059 255.646 17.4869 256.698 18.3356 257.561C19.1843 258.415 20.1946 258.839 21.3664 258.832C22.5305 258.826 23.5319 258.39 24.3707 257.526C25.2095 256.654 25.6253 255.597 25.6182 254.355ZM36.6341 244.143L36.6487 246.686L35.1956 246.694L35.181 244.151L36.6341 244.143ZM36.6982 249.194L36.7507 258.357L40.6178 258.335C40.86 258.334 41.0321 258.38 41.1342 258.473C41.2363 258.558 41.2877 258.675 41.2886 258.824C41.2894 258.964 41.2393 259.082 41.1382 259.176C41.0372 259.27 40.8656 259.318 40.6234 259.32L31.9048 259.37C31.6705 259.371 31.5022 259.325 31.4001 259.232C31.298 259.139 31.2466 259.022 31.2458 258.881C31.2449 258.733 31.295 258.615 31.3961 258.529C31.4971 258.434 31.6648 258.387 31.8992 258.385L35.7663 258.363L35.7195 250.195L32.8485 250.212C32.6141 250.213 32.442 250.167 32.3321 250.074C32.23 249.981 32.1785 249.864 32.1777 249.723C32.1769 249.575 32.227 249.454 32.328 249.359C32.429 249.265 32.6006 249.217 32.8428 249.216L36.6982 249.194ZM48.5691 249.126L53.9128 249.095C54.1471 249.094 54.3154 249.14 54.4175 249.233C54.5196 249.326 54.571 249.447 54.5719 249.595C54.5727 249.736 54.5226 249.853 54.4216 249.948C54.3205 250.042 54.1528 250.09 53.9185 250.091L48.5748 250.122L48.6123 256.672C48.6156 257.243 48.8449 257.718 49.3002 258.098C49.7633 258.478 50.4363 258.666 51.3191 258.661C51.9831 258.657 52.7013 258.555 53.4736 258.355C54.2459 258.148 54.8461 257.918 55.2744 257.665C55.43 257.563 55.5586 257.511 55.6602 257.511C55.7852 257.51 55.8949 257.56 55.9892 257.661C56.0835 257.755 56.131 257.868 56.1318 258C56.1324 258.118 56.0823 258.227 55.9813 258.329C55.7328 258.589 55.125 258.873 54.158 259.184C53.1988 259.486 52.2778 259.64 51.395 259.645C50.2466 259.651 49.331 259.387 48.6482 258.852C47.9655 258.317 47.6215 257.592 47.6162 256.678L47.5787 250.127L45.7623 250.138C45.528 250.139 45.3597 250.093 45.2576 250C45.1555 249.907 45.1041 249.786 45.1032 249.638C45.1024 249.497 45.1525 249.379 45.2536 249.285C45.3546 249.191 45.5223 249.143 45.7566 249.142L47.573 249.131L47.5564 246.225C47.555 245.991 47.601 245.822 47.6941 245.72C47.7873 245.618 47.9042 245.567 48.0448 245.566C48.1932 245.565 48.3146 245.615 48.409 245.716C48.5033 245.817 48.5511 245.985 48.5525 246.219L48.5691 249.126ZM65.4618 243.978L65.4763 246.521L64.0232 246.529L64.0087 243.986L65.4618 243.978ZM65.5259 249.028L65.5783 258.192L69.4454 258.17C69.6876 258.169 69.8598 258.215 69.9619 258.308C70.0639 258.393 70.1154 258.51 70.1162 258.659C70.117 258.799 70.0669 258.917 69.9659 259.011C69.8649 259.105 69.6933 259.153 69.4511 259.155L60.7325 259.205C60.4981 259.206 60.3299 259.16 60.2278 259.067C60.1257 258.974 60.0742 258.857 60.0734 258.716C60.0726 258.568 60.1227 258.45 60.2237 258.364C60.3248 258.269 60.4925 258.221 60.7268 258.22L64.594 258.198L64.5472 250.03L61.6761 250.047C61.4418 250.048 61.2696 250.002 61.1597 249.909C61.0576 249.816 61.0062 249.699 61.0054 249.558C61.0045 249.41 61.0546 249.288 61.1556 249.194C61.2567 249.1 61.4283 249.052 61.6704 249.051L65.5259 249.028ZM76.2366 248.967L76.2451 250.455C76.9286 249.756 77.547 249.272 78.1001 249.003C78.6533 248.735 79.2775 248.598 79.9728 248.594C80.7228 248.59 81.4073 248.746 82.0263 249.063C82.4652 249.295 82.8619 249.683 83.2166 250.228C83.5791 250.765 83.7619 251.319 83.7652 251.889L83.8007 258.088L84.6327 258.083C84.8671 258.082 85.0353 258.128 85.1374 258.221C85.2395 258.306 85.2909 258.423 85.2918 258.572C85.2926 258.712 85.2425 258.83 85.1414 258.924C85.0404 259.018 84.8727 259.066 84.6383 259.068L82.0017 259.083C81.7595 259.084 81.5873 259.038 81.4852 258.945C81.3831 258.852 81.3317 258.735 81.3309 258.594C81.33 258.446 81.3801 258.328 81.4812 258.242C81.5822 258.148 81.7538 258.1 81.996 258.098L82.8163 258.094L82.7818 252.059C82.7778 251.363 82.5205 250.779 82.01 250.305C81.4994 249.824 80.8184 249.585 79.9668 249.59C79.3184 249.594 78.7566 249.73 78.2816 249.998C77.8065 250.259 77.1306 250.911 76.2537 251.955L76.2891 258.131L77.4023 258.125C77.6367 258.123 77.805 258.169 77.9071 258.262C78.0091 258.348 78.0606 258.465 78.0614 258.613C78.0622 258.754 78.0121 258.871 77.9111 258.966C77.8101 259.06 77.6424 259.108 77.408 259.109L74.1971 259.127C73.9627 259.129 73.7945 259.083 73.6924 258.99C73.5903 258.897 73.5388 258.78 73.538 258.639C73.5372 258.491 73.5873 258.373 73.6884 258.287C73.7894 258.192 73.9571 258.144 74.1915 258.143L75.3047 258.137L75.258 249.969L74.4259 249.974C74.1916 249.975 74.0233 249.929 73.9212 249.836C73.8191 249.743 73.7677 249.622 73.7668 249.473C73.766 249.333 73.8161 249.215 73.9171 249.121C74.0182 249.027 74.1859 248.979 74.4202 248.978L76.2366 248.967ZM97.1529 250.652L97.1425 248.847L99.4511 248.834C99.6854 248.833 99.8537 248.879 99.9558 248.972C100.058 249.065 100.109 249.186 100.11 249.334C100.111 249.475 100.061 249.592 99.9599 249.687C99.8588 249.781 99.6912 249.829 99.4568 249.83L98.1326 249.838L98.1889 259.67C98.1926 260.326 98.0554 260.913 97.7771 261.43C97.5915 261.775 97.2811 262.132 96.8457 262.502C96.4103 262.871 96.0134 263.135 95.6549 263.294C95.2964 263.452 94.8164 263.533 94.2149 263.536L91.4258 263.552C91.1915 263.554 91.0232 263.508 90.9211 263.415C90.8191 263.329 90.7676 263.212 90.7668 263.064C90.7659 262.915 90.816 262.794 90.917 262.7C91.0181 262.605 91.1858 262.558 91.4201 262.556L94.2444 262.552C94.8225 262.548 95.3412 262.397 95.8004 262.098C96.2674 261.798 96.6517 261.362 96.9531 260.79C97.1231 260.461 97.2066 260.043 97.2037 259.535L97.1868 256.582C96.1404 258.033 94.7852 258.763 93.1212 258.773C91.7696 258.781 90.5988 258.287 89.6087 257.293C88.6264 256.291 88.1312 255.083 88.1231 253.669C88.115 252.255 88.5964 251.045 89.5672 250.039C90.5458 249.034 91.7109 248.527 93.0625 248.519C94.7265 248.51 96.09 249.221 97.1529 250.652ZM97.1698 253.617C97.1632 252.461 96.7592 251.486 95.9578 250.694C95.1642 249.902 94.2166 249.509 93.115 249.515C92.0135 249.521 91.0705 249.929 90.286 250.738C89.5016 251.54 89.1126 252.515 89.1192 253.663C89.1258 254.819 89.5259 255.797 90.3196 256.598C91.1132 257.39 92.0608 257.783 93.1623 257.777C94.2639 257.77 95.2069 257.366 95.9914 256.565C96.7836 255.756 97.1765 254.773 97.1698 253.617Z" fill="#1E1E1E" fill-opacity="0.15"/>
<path d="M197.402 199H194.414C193.977 199 193.625 198.938 193.359 198.812C193.094 198.688 192.898 198.516 192.773 198.297C192.648 198.07 192.57 197.859 192.539 197.664C192.516 197.461 192.469 196.82 192.398 195.742L191.355 196.621C189.793 196.559 188.766 196.473 188.273 196.363C187.789 196.254 187.547 196.141 187.547 196.023C187.547 195.391 187.742 194.773 188.133 194.172C188.531 193.57 189.887 192.945 192.199 192.297C192.113 191.344 191.992 190.695 191.836 190.352L192.844 189.004C193 191.676 193.207 194.414 193.465 197.219C193.621 197.445 193.848 197.559 194.145 197.559H197.402V199ZM192.352 194.922L192.246 193.176C191.449 193.355 190.68 193.609 189.938 193.938C189.195 194.258 188.824 194.555 188.824 194.828C188.824 194.914 188.895 194.98 189.035 195.027C189.176 195.066 189.512 195.117 190.043 195.18C190.574 195.242 190.98 195.273 191.262 195.273C191.465 195.273 191.828 195.156 192.352 194.922ZM191.789 186.355L190.523 187.633L189.234 186.332L190.523 185.055L191.695 186.227L192.973 184.961L194.262 186.238L192.973 187.539L191.789 186.355ZM211.816 199H210.926C210.082 199 209.375 198.953 208.805 198.859C208.242 198.766 207.766 198.512 207.375 198.098C206.992 197.676 206.656 197.145 206.367 196.504C206.203 197.066 205.852 197.625 205.312 198.18C204.773 198.727 204.254 199 203.754 199H197.414V197.559H203.578C204.078 197.559 204.551 197.406 204.996 197.102C205.441 196.789 205.664 196.367 205.664 195.836C205.664 195 205.414 193.988 204.914 192.801L205.887 191.113C206.379 192.457 206.625 193.504 206.625 194.254C206.625 195.246 206.895 196.047 207.434 196.656C207.973 197.258 208.723 197.559 209.684 197.559H211.816V199ZM206.66 203.066L205.395 204.344L204.105 203.043L205.395 201.766L206.566 202.938L207.844 201.672L209.133 202.949L207.844 204.25L206.66 203.066ZM211.828 199V197.559H222.199C222.754 197.559 223.324 197.434 223.91 197.184C224.504 196.934 224.801 196.68 224.801 196.422C224.801 195.031 224.395 193.891 223.582 193L224.379 191.008C225.285 192.367 225.738 193.797 225.738 195.297C225.738 196.094 225.484 196.91 224.977 197.746C224.469 198.582 223.852 199 223.125 199H211.828ZM224.367 202.504L223.09 203.793L221.789 202.504L223.09 201.227L224.367 202.504ZM239.285 199C238.66 199 238.172 198.898 237.82 198.695C237.477 198.484 237.18 198.109 236.93 197.57C236.797 199.391 236.211 200.906 235.172 202.117C234.133 203.336 233.125 203.945 232.148 203.945C231.32 203.945 230.656 203.871 230.156 203.723L227.988 203.078C227.613 202.969 227.426 202.809 227.426 202.598C227.426 202.395 227.523 202.293 227.719 202.293C227.773 202.293 228.117 202.352 228.75 202.469C229.383 202.586 230.043 202.645 230.73 202.645C231.512 202.645 232.367 202.328 233.297 201.695C234.227 201.062 234.957 200.363 235.488 199.598C236.02 198.832 236.285 198.242 236.285 197.828C236.285 197.219 236.215 196.582 236.074 195.918C235.941 195.254 235.527 194.32 234.832 193.117L235.57 191.125C236.18 192.07 236.609 193.5 236.859 195.414C237.148 196.844 237.957 197.559 239.285 197.559H240.645V199H239.285ZM255.059 199H252.984C251.289 199 250.035 197.973 249.223 195.918C248.676 196.207 248.105 196.621 247.512 197.16C246.707 197.879 246.074 198.367 245.613 198.625C245.16 198.875 244.527 199 243.715 199H240.656V197.559H243.844C244.531 197.559 245.094 197.453 245.531 197.242C245.977 197.023 246.691 196.527 247.676 195.754C248.059 195.449 248.406 195.203 248.719 195.016C248 194.188 247.219 193.742 246.375 193.68L247.078 191.969C248 191.672 248.828 191.523 249.562 191.523C251.461 191.523 252.41 192.098 252.41 193.246C252.41 194.137 251.633 194.887 250.078 195.496C250.586 196.363 251.062 196.926 251.508 197.184C251.961 197.434 252.562 197.559 253.312 197.559H255.059V199ZM247.535 192.906C248.496 193.406 249.172 193.957 249.562 194.559C250.586 194.199 251.098 193.809 251.098 193.387C251.098 192.801 250.566 192.508 249.504 192.508C249.074 192.508 248.418 192.641 247.535 192.906ZM255.07 199V197.559H266.426C267.238 197.559 267.645 197.316 267.645 196.832C267.645 194.926 267.527 192.957 267.293 190.926C267.066 188.895 266.758 187.512 266.367 186.777C266.625 186.285 266.953 185.781 267.352 185.266C267.672 185.945 268.016 186.457 268.383 186.801L267.703 187.984C268.258 192.242 268.535 195.223 268.535 196.926C268.535 197.535 268.371 198.035 268.043 198.426C267.723 198.809 266.879 199 265.512 199H255.07ZM275.953 198.309C275.953 196.434 275.875 194.43 275.719 192.297C275.562 190.055 275.484 188.402 275.484 187.34L276.703 185.395L276.668 187.211C276.668 188.516 276.688 189.711 276.727 190.797C276.789 192.5 276.82 193.695 276.82 194.383C276.82 196.672 276.531 197.98 275.953 198.309Z" fill="#1E1E1E" fill-opacity="0.15"/>
<path d="M411.58 128.395V138.18H417.029V134.918C417.029 134.723 417.068 134.583 417.146 134.498C417.225 134.413 417.326 134.371 417.449 134.371C417.566 134.371 417.664 134.413 417.742 134.498C417.82 134.576 417.859 134.716 417.859 134.918V139H408.797C408.602 139 408.462 138.961 408.377 138.883C408.292 138.805 408.25 138.707 408.25 138.59C408.25 138.466 408.292 138.368 408.377 138.297C408.462 138.219 408.602 138.18 408.797 138.18H410.75V128.395H408.797C408.602 128.395 408.462 128.359 408.377 128.287C408.292 128.209 408.25 128.108 408.25 127.984C408.25 127.861 408.292 127.763 408.377 127.691C408.462 127.613 408.602 127.574 408.797 127.574H413.533C413.729 127.574 413.868 127.613 413.953 127.691C414.038 127.763 414.08 127.861 414.08 127.984C414.08 128.108 414.038 128.209 413.953 128.287C413.868 128.359 413.729 128.395 413.533 128.395H411.58ZM425.418 126.334V128.453H424.207V126.334H425.418ZM425.447 130.543V138.18H428.67C428.872 138.18 429.015 138.219 429.1 138.297C429.184 138.368 429.227 138.466 429.227 138.59C429.227 138.707 429.184 138.805 429.1 138.883C429.015 138.961 428.872 139 428.67 139H421.404C421.209 139 421.069 138.961 420.984 138.883C420.9 138.805 420.857 138.707 420.857 138.59C420.857 138.466 420.9 138.368 420.984 138.297C421.069 138.219 421.209 138.18 421.404 138.18H424.627V131.373H422.234C422.039 131.373 421.896 131.334 421.805 131.256C421.72 131.178 421.678 131.08 421.678 130.963C421.678 130.839 421.72 130.738 421.805 130.66C421.889 130.582 422.033 130.543 422.234 130.543H425.447ZM434.373 130.543V131.783C434.946 131.204 435.464 130.803 435.926 130.582C436.388 130.361 436.909 130.25 437.488 130.25C438.113 130.25 438.683 130.383 439.197 130.65C439.562 130.846 439.891 131.171 440.184 131.627C440.483 132.076 440.633 132.538 440.633 133.014V138.18H441.326C441.521 138.18 441.661 138.219 441.746 138.297C441.831 138.368 441.873 138.466 441.873 138.59C441.873 138.707 441.831 138.805 441.746 138.883C441.661 138.961 441.521 139 441.326 139H439.129C438.927 139 438.784 138.961 438.699 138.883C438.615 138.805 438.572 138.707 438.572 138.59C438.572 138.466 438.615 138.368 438.699 138.297C438.784 138.219 438.927 138.18 439.129 138.18H439.812V133.15C439.812 132.571 439.601 132.083 439.178 131.686C438.755 131.282 438.188 131.08 437.479 131.08C436.938 131.08 436.469 131.191 436.072 131.412C435.675 131.627 435.109 132.167 434.373 133.033V138.18H435.301C435.496 138.18 435.636 138.219 435.721 138.297C435.805 138.368 435.848 138.466 435.848 138.59C435.848 138.707 435.805 138.805 435.721 138.883C435.636 138.961 435.496 139 435.301 139H432.625C432.43 139 432.29 138.961 432.205 138.883C432.12 138.805 432.078 138.707 432.078 138.59C432.078 138.466 432.12 138.368 432.205 138.297C432.29 138.219 432.43 138.18 432.625 138.18H433.553V131.373H432.859C432.664 131.373 432.524 131.334 432.439 131.256C432.355 131.178 432.312 131.077 432.312 130.953C432.312 130.836 432.355 130.738 432.439 130.66C432.524 130.582 432.664 130.543 432.859 130.543H434.373ZM451.795 132.047V130.543H453.719C453.914 130.543 454.054 130.582 454.139 130.66C454.223 130.738 454.266 130.839 454.266 130.963C454.266 131.08 454.223 131.178 454.139 131.256C454.054 131.334 453.914 131.373 453.719 131.373H452.615V139.566C452.615 140.113 452.498 140.602 452.264 141.031C452.107 141.318 451.847 141.614 451.482 141.92C451.118 142.226 450.786 142.444 450.486 142.574C450.187 142.704 449.786 142.77 449.285 142.77H446.961C446.766 142.77 446.626 142.73 446.541 142.652C446.456 142.581 446.414 142.483 446.414 142.359C446.414 142.236 446.456 142.135 446.541 142.057C446.626 141.979 446.766 141.939 446.961 141.939L449.314 141.949C449.796 141.949 450.229 141.826 450.613 141.578C451.004 141.331 451.326 140.969 451.58 140.494C451.723 140.221 451.795 139.872 451.795 139.449V136.988C450.916 138.193 449.783 138.795 448.396 138.795C447.27 138.795 446.297 138.378 445.477 137.545C444.663 136.705 444.256 135.696 444.256 134.518C444.256 133.339 444.663 132.333 445.477 131.5C446.297 130.667 447.27 130.25 448.396 130.25C449.783 130.25 450.916 130.849 451.795 132.047ZM451.795 134.518C451.795 133.554 451.463 132.74 450.799 132.076C450.141 131.412 449.354 131.08 448.436 131.08C447.518 131.08 446.73 131.415 446.072 132.086C445.415 132.75 445.086 133.561 445.086 134.518C445.086 135.481 445.415 136.298 446.072 136.969C446.73 137.633 447.518 137.965 448.436 137.965C449.354 137.965 450.141 137.633 450.799 136.969C451.463 136.298 451.795 135.481 451.795 134.518ZM463.855 139V137.799C462.736 138.814 461.525 139.322 460.223 139.322C459.422 139.322 458.813 139.104 458.396 138.668C457.856 138.095 457.586 137.428 457.586 136.666V131.373H456.482C456.287 131.373 456.147 131.334 456.062 131.256C455.978 131.178 455.936 131.077 455.936 130.953C455.936 130.836 455.978 130.738 456.062 130.66C456.147 130.582 456.287 130.543 456.482 130.543H458.406V136.666C458.406 137.2 458.576 137.639 458.914 137.984C459.253 138.329 459.676 138.502 460.184 138.502C461.518 138.502 462.742 137.89 463.855 136.666V131.373H462.342C462.146 131.373 462.007 131.334 461.922 131.256C461.837 131.178 461.795 131.077 461.795 130.953C461.795 130.836 461.837 130.738 461.922 130.66C462.007 130.582 462.146 130.543 462.342 130.543H464.676V138.18H465.369C465.564 138.18 465.704 138.219 465.789 138.297C465.874 138.368 465.916 138.466 465.916 138.59C465.916 138.707 465.874 138.805 465.789 138.883C465.704 138.961 465.564 139 465.369 139H463.855ZM473.465 126.334V128.453H472.254V126.334H473.465ZM473.494 130.543V138.18H476.717C476.919 138.18 477.062 138.219 477.146 138.297C477.231 138.368 477.273 138.466 477.273 138.59C477.273 138.707 477.231 138.805 477.146 138.883C477.062 138.961 476.919 139 476.717 139H469.451C469.256 139 469.116 138.961 469.031 138.883C468.947 138.805 468.904 138.707 468.904 138.59C468.904 138.466 468.947 138.368 469.031 138.297C469.116 138.219 469.256 138.18 469.451 138.18H472.674V131.373H470.281C470.086 131.373 469.943 131.334 469.852 131.256C469.767 131.178 469.725 131.08 469.725 130.963C469.725 130.839 469.767 130.738 469.852 130.66C469.936 130.582 470.079 130.543 470.281 130.543H473.494ZM487.781 131.08C487.781 130.891 487.82 130.755 487.898 130.67C487.977 130.585 488.074 130.543 488.191 130.543C488.315 130.543 488.416 130.585 488.494 130.67C488.572 130.755 488.611 130.898 488.611 131.1V132.506C488.611 132.701 488.572 132.841 488.494 132.926C488.416 133.01 488.315 133.053 488.191 133.053C488.081 133.053 487.986 133.017 487.908 132.945C487.837 132.874 487.794 132.757 487.781 132.594C487.742 132.203 487.54 131.881 487.176 131.627C486.642 131.262 485.936 131.08 485.057 131.08C484.139 131.08 483.426 131.266 482.918 131.637C482.534 131.917 482.342 132.229 482.342 132.574C482.342 132.965 482.57 133.29 483.025 133.551C483.338 133.733 483.93 133.873 484.803 133.971C485.942 134.094 486.733 134.234 487.176 134.391C487.807 134.618 488.276 134.934 488.582 135.338C488.895 135.742 489.051 136.178 489.051 136.646C489.051 137.343 488.715 137.965 488.045 138.512C487.374 139.052 486.391 139.322 485.096 139.322C483.8 139.322 482.739 138.993 481.912 138.336C481.912 138.557 481.899 138.701 481.873 138.766C481.847 138.831 481.798 138.886 481.727 138.932C481.661 138.977 481.587 139 481.502 139C481.385 139 481.287 138.958 481.209 138.873C481.131 138.788 481.092 138.648 481.092 138.453V136.764C481.092 136.568 481.128 136.428 481.199 136.344C481.277 136.259 481.378 136.217 481.502 136.217C481.619 136.217 481.717 136.259 481.795 136.344C481.88 136.422 481.922 136.529 481.922 136.666C481.922 136.965 481.997 137.216 482.146 137.418C482.374 137.73 482.736 137.991 483.23 138.199C483.732 138.401 484.344 138.502 485.066 138.502C486.134 138.502 486.928 138.303 487.449 137.906C487.97 137.509 488.23 137.089 488.23 136.646C488.23 136.139 487.967 135.732 487.439 135.426C486.906 135.12 486.128 134.915 485.105 134.811C484.09 134.706 483.361 134.57 482.918 134.4C482.475 134.231 482.13 133.977 481.883 133.639C481.635 133.3 481.512 132.936 481.512 132.545C481.512 131.842 481.857 131.285 482.547 130.875C483.237 130.458 484.061 130.25 485.018 130.25C486.15 130.25 487.072 130.527 487.781 131.08ZM495.398 130.543H499.852C500.047 130.543 500.187 130.582 500.271 130.66C500.356 130.738 500.398 130.839 500.398 130.963C500.398 131.08 500.356 131.178 500.271 131.256C500.187 131.334 500.047 131.373 499.852 131.373H495.398V136.832C495.398 137.307 495.587 137.704 495.965 138.023C496.349 138.342 496.909 138.502 497.645 138.502C498.198 138.502 498.797 138.421 499.441 138.258C500.086 138.089 500.587 137.9 500.945 137.691C501.076 137.607 501.183 137.564 501.268 137.564C501.372 137.564 501.463 137.607 501.541 137.691C501.619 137.77 501.658 137.864 501.658 137.975C501.658 138.072 501.616 138.163 501.531 138.248C501.323 138.463 500.815 138.697 500.008 138.951C499.207 139.199 498.439 139.322 497.703 139.322C496.746 139.322 495.984 139.098 495.418 138.648C494.852 138.199 494.568 137.594 494.568 136.832V131.373H493.055C492.859 131.373 492.719 131.334 492.635 131.256C492.55 131.178 492.508 131.077 492.508 130.953C492.508 130.836 492.55 130.738 492.635 130.66C492.719 130.582 492.859 130.543 493.055 130.543H494.568V128.121C494.568 127.926 494.607 127.786 494.686 127.701C494.764 127.617 494.861 127.574 494.979 127.574C495.102 127.574 495.203 127.617 495.281 127.701C495.359 127.786 495.398 127.926 495.398 128.121V130.543ZM509.5 126.334V128.453H508.289V126.334H509.5ZM509.529 130.543V138.18H512.752C512.954 138.18 513.097 138.219 513.182 138.297C513.266 138.368 513.309 138.466 513.309 138.59C513.309 138.707 513.266 138.805 513.182 138.883C513.097 138.961 512.954 139 512.752 139H505.486C505.291 139 505.151 138.961 505.066 138.883C504.982 138.805 504.939 138.707 504.939 138.59C504.939 138.466 504.982 138.368 505.066 138.297C505.151 138.219 505.291 138.18 505.486 138.18H508.709V131.373H506.316C506.121 131.373 505.978 131.334 505.887 131.256C505.802 131.178 505.76 131.08 505.76 130.963C505.76 130.839 505.802 130.738 505.887 130.66C505.971 130.582 506.115 130.543 506.316 130.543H509.529ZM524.529 131.373V131.1C524.529 130.898 524.568 130.755 524.646 130.67C524.725 130.585 524.822 130.543 524.939 130.543C525.063 130.543 525.164 130.585 525.242 130.67C525.32 130.755 525.359 130.898 525.359 131.1V132.955C525.353 133.157 525.311 133.3 525.232 133.385C525.161 133.469 525.063 133.512 524.939 133.512C524.829 133.512 524.734 133.476 524.656 133.404C524.585 133.326 524.542 133.199 524.529 133.023C524.49 132.561 524.184 132.122 523.611 131.705C523.045 131.288 522.28 131.08 521.316 131.08C520.099 131.08 519.174 131.461 518.543 132.223C517.911 132.984 517.596 133.857 517.596 134.84C517.596 135.901 517.944 136.777 518.641 137.467C519.337 138.157 520.239 138.502 521.346 138.502C521.984 138.502 522.632 138.385 523.289 138.15C523.953 137.916 524.552 137.538 525.086 137.018C525.223 136.887 525.343 136.822 525.447 136.822C525.558 136.822 525.649 136.861 525.721 136.939C525.799 137.011 525.838 137.102 525.838 137.213C525.838 137.493 525.509 137.848 524.852 138.277C523.79 138.974 522.609 139.322 521.307 139.322C519.985 139.322 518.898 138.902 518.045 138.062C517.199 137.216 516.775 136.145 516.775 134.85C516.775 133.528 517.208 132.431 518.074 131.559C518.947 130.686 520.044 130.25 521.365 130.25C522.622 130.25 523.676 130.624 524.529 131.373ZM535.828 131.08C535.828 130.891 535.867 130.755 535.945 130.67C536.023 130.585 536.121 130.543 536.238 130.543C536.362 130.543 536.463 130.585 536.541 130.67C536.619 130.755 536.658 130.898 536.658 131.1V132.506C536.658 132.701 536.619 132.841 536.541 132.926C536.463 133.01 536.362 133.053 536.238 133.053C536.128 133.053 536.033 133.017 535.955 132.945C535.883 132.874 535.841 132.757 535.828 132.594C535.789 132.203 535.587 131.881 535.223 131.627C534.689 131.262 533.982 131.08 533.104 131.08C532.186 131.08 531.473 131.266 530.965 131.637C530.581 131.917 530.389 132.229 530.389 132.574C530.389 132.965 530.617 133.29 531.072 133.551C531.385 133.733 531.977 133.873 532.85 133.971C533.989 134.094 534.78 134.234 535.223 134.391C535.854 134.618 536.323 134.934 536.629 135.338C536.941 135.742 537.098 136.178 537.098 136.646C537.098 137.343 536.762 137.965 536.092 138.512C535.421 139.052 534.438 139.322 533.143 139.322C531.847 139.322 530.786 138.993 529.959 138.336C529.959 138.557 529.946 138.701 529.92 138.766C529.894 138.831 529.845 138.886 529.773 138.932C529.708 138.977 529.633 139 529.549 139C529.432 139 529.334 138.958 529.256 138.873C529.178 138.788 529.139 138.648 529.139 138.453V136.764C529.139 136.568 529.174 136.428 529.246 136.344C529.324 136.259 529.425 136.217 529.549 136.217C529.666 136.217 529.764 136.259 529.842 136.344C529.926 136.422 529.969 136.529 529.969 136.666C529.969 136.965 530.044 137.216 530.193 137.418C530.421 137.73 530.783 137.991 531.277 138.199C531.779 138.401 532.391 138.502 533.113 138.502C534.181 138.502 534.975 138.303 535.496 137.906C536.017 137.509 536.277 137.089 536.277 136.646C536.277 136.139 536.014 135.732 535.486 135.426C534.952 135.12 534.174 134.915 533.152 134.811C532.137 134.706 531.408 134.57 530.965 134.4C530.522 134.231 530.177 133.977 529.93 133.639C529.682 133.3 529.559 132.936 529.559 132.545C529.559 131.842 529.904 131.285 530.594 130.875C531.284 130.458 532.107 130.25 533.064 130.25C534.197 130.25 535.118 130.527 535.828 131.08Z" fill="#1E1E1E" fill-opacity="0.15"/>
</svg>
