<svg width="164" height="41" viewBox="0 0 164 41" fill="none" xmlns="http://www.w3.org/2000/svg">
<path d="M0.69189 31.537L5.17195 3.59086L21.6117 3.49673L21.419 4.77786L6.41926 4.86374L4.52709 16.7148L18.9669 16.6321L18.7742 17.9132L4.29442 17.9961L2.32453 30.2476L17.3243 30.1617L17.1316 31.4428L0.69189 31.537ZM39.2088 26.6364L39.0888 26.637C38.3244 28.1881 37.3582 29.447 36.1904 30.4137C35.0491 31.3536 33.5718 31.8287 31.7585 31.8391C30.6385 31.8455 29.6508 31.6645 28.7953 31.2961C27.9397 30.901 27.2166 30.3584 26.626 29.6685C26.062 28.9783 25.6306 28.1541 25.3318 27.1958C25.0328 26.2109 24.88 25.1317 24.8733 23.9584C24.8627 22.1184 25.0661 20.3706 25.4833 18.7148C25.9004 17.0591 26.5188 15.6022 27.3383 14.3441C28.1577 13.0861 29.1654 12.0936 30.3613 11.3668C31.5836 10.6131 32.9681 10.2318 34.5148 10.223C36.2748 10.2129 37.7036 10.5914 38.8014 11.3584C39.8989 12.0988 40.6513 13.0945 41.0585 14.3456L41.2185 14.3446L43.2261 1.69295L44.5861 1.68516L39.8356 31.3128L38.4756 31.3206L39.2088 26.6364ZM31.9914 30.5977C32.8714 30.5927 33.6839 30.4547 34.4291 30.1838C35.2007 29.886 35.9314 29.4152 36.621 28.7712C37.3372 28.1004 37.9991 27.27 38.6068 26.2798C39.2143 25.263 39.6211 24.1273 39.8273 22.8728L40.7548 17.1874C40.8575 16.4934 40.8135 15.8003 40.6229 15.1081C40.4589 14.4157 40.1354 13.8042 39.6523 13.2736C39.1691 12.7164 38.5133 12.2801 37.6848 11.9648C36.8562 11.6229 35.8685 11.4552 34.7219 11.4618C33.6286 11.4681 32.6298 11.6871 31.7256 12.119C30.8214 12.5508 30.0248 13.1421 29.3357 13.8927C28.6733 14.6432 28.1184 15.5263 27.6709 16.5423C27.2233 17.5582 26.9096 18.6533 26.7296 19.8277L26.3823 22.0297C26.2791 22.6437 26.2295 23.2973 26.2335 23.9906C26.2388 24.9239 26.3504 25.79 26.5684 26.5887C26.8129 27.3873 27.1636 28.092 27.6205 28.7027C28.0772 29.2868 28.6665 29.7501 29.3885 30.0926C30.1104 30.4352 30.9781 30.6036 31.9914 30.5977ZM59.9846 4.11703C59.4513 4.12009 59.0908 4.02882 58.903 3.84322C58.7153 3.65763 58.6207 3.44483 58.6194 3.20483C58.6185 3.04484 58.6571 2.80461 58.7352 2.48416C58.8133 2.13704 58.9717 1.86946 59.2107 1.68142C59.4494 1.46672 59.7955 1.35807 60.2488 1.35547C60.7821 1.35242 61.1427 1.44369 61.3304 1.62929C61.5181 1.81488 61.6127 2.02768 61.6141 2.26767C61.615 2.42767 61.5763 2.6679 61.4982 2.98835C61.4202 3.33547 61.2618 3.61638 61.023 3.83108C60.7841 4.01912 60.4379 4.11444 59.9846 4.11703ZM55.6225 31.7025C55.1958 31.7049 54.8751 31.5867 54.6604 31.348C54.4459 31.1359 54.3375 30.8431 54.3354 30.4698C54.3346 30.3365 54.3471 30.1764 54.3727 29.9896C54.3983 29.8028 54.4498 29.4825 54.5272 29.0287L57.7884 11.7697L49.6685 11.8162L49.8617 10.6151L59.3815 10.5606L55.6938 30.182L56.0549 30.38L65.9742 23.2431L66.6992 24.1189L58.5333 30.0858C57.763 30.6235 57.1786 31.0269 56.7802 31.2958C56.3817 31.5648 55.9958 31.7003 55.6225 31.7025ZM78.9665 31.5688C78.5665 31.5711 78.2459 31.4663 78.0047 31.2543C77.7901 31.0422 77.6819 30.7761 77.6801 30.4561C77.6789 30.2428 77.6776 30.0295 77.6764 29.8162C77.7019 29.6027 77.7534 29.2824 77.8309 28.8553L80.6924 11.6386L73.1725 11.6816L73.3656 10.4805L79.6055 10.4448C80.4855 10.4398 81.003 9.99679 81.158 9.11588L82.0838 3.15049L83.4438 3.1427L82.2855 10.4294L92.3653 10.3717L92.1722 11.5729L82.0524 11.6308L79.0378 30.0484L79.4389 30.2461L90.0805 23.505L90.766 24.4611L81.918 30.0719C81.2007 30.556 80.6295 30.9193 80.2042 31.1617C79.779 31.4308 79.3665 31.5665 78.9665 31.5688ZM107.953 3.84238C107.419 3.84543 107.059 3.75416 106.871 3.56857C106.683 3.38297 106.589 3.17018 106.587 2.93018C106.586 2.77018 106.625 2.52996 106.703 2.20951C106.781 1.86239 106.94 1.59481 107.179 1.40677C107.417 1.19207 107.763 1.08342 108.217 1.08082C108.75 1.07777 109.111 1.16904 109.298 1.35463C109.486 1.54023 109.581 1.75302 109.582 1.99302C109.583 2.15302 109.544 2.39324 109.466 2.71369C109.388 3.06081 109.23 3.34173 108.991 3.55643C108.752 3.74447 108.406 3.83978 107.953 3.84238ZM103.59 31.4278C103.164 31.4303 102.843 31.3121 102.628 31.0733C102.414 30.8612 102.306 30.5685 102.303 30.1952C102.303 30.0618 102.315 29.9018 102.341 29.7149C102.366 29.5281 102.418 29.2078 102.495 28.754L105.756 11.4951L97.6365 11.5416L97.8296 10.3404L107.349 10.2859L103.662 29.9074L104.023 30.1053L113.942 22.9684L114.667 23.8443L106.501 29.8111C105.731 30.3489 105.147 30.7522 104.748 31.0212C104.35 31.2901 103.964 31.4257 103.59 31.4278ZM121.412 30.8458L124.734 10.1864L126.094 10.1786L125.36 14.8229L125.52 14.822C126.284 13.2176 127.224 11.9588 128.339 11.0458C129.453 10.1327 130.891 9.67114 132.651 9.66106C134.411 9.65099 135.774 10.1499 136.739 11.1577C137.705 12.1388 138.193 13.5361 138.203 15.3494C138.205 15.7227 138.181 16.1095 138.13 16.5098C138.106 16.9099 138.068 17.3102 138.017 17.7105L135.892 30.7629L134.532 30.7706L136.618 17.8385C136.669 17.4649 136.707 17.078 136.731 16.6778C136.782 16.2775 136.806 15.904 136.805 15.5574C136.787 12.4374 135.284 10.886 132.298 10.9031C131.364 10.9084 130.459 11.1136 129.581 11.5187C128.703 11.897 127.907 12.5416 127.192 13.4524C127.007 13.6934 126.795 13.988 126.557 14.336C126.319 14.6574 126.081 15.0454 125.844 15.5001C125.606 15.9282 125.383 16.4095 125.172 16.944C124.988 17.4517 124.845 17.9992 124.742 18.5865L122.772 30.838L121.412 30.8458ZM150.524 39.1592C148.978 39.1681 147.67 38.9356 146.6 38.4617C145.557 37.9876 144.687 37.3259 143.989 36.4766L144.983 35.5509C145.548 36.2943 146.271 36.8769 147.154 37.2985C148.063 37.7199 149.197 37.9268 150.557 37.919C152.69 37.9068 154.421 37.3502 155.748 36.2493C157.075 35.1483 157.931 33.3567 158.317 30.8745L159.128 25.7897L159.008 25.7904C158.243 27.3415 157.277 28.6004 156.109 29.5671C154.968 30.507 153.491 30.9821 151.677 30.9925C150.558 30.9989 149.57 30.8179 148.714 30.4494C147.859 30.0543 147.136 29.5118 146.545 28.8218C145.981 28.1317 145.55 27.3075 145.251 26.3492C144.952 25.3642 144.799 24.2851 144.792 23.1118C144.782 21.2985 144.985 19.5773 145.403 17.9482C145.847 16.2923 146.478 14.8486 147.298 13.6173C148.117 12.3592 149.125 11.3668 150.321 10.6399C151.517 9.91305 152.888 9.54519 154.435 9.53633C156.195 9.52626 157.624 9.90475 158.721 10.6718C159.846 11.412 160.611 12.4077 161.018 13.6587L161.138 13.658L161.717 9.97464L163.077 9.96685L159.639 31.1869C159.201 33.9361 158.199 35.9419 156.633 37.2042C155.067 38.4932 153.031 39.1449 150.524 39.1592ZM151.91 29.7511C152.79 29.7461 153.603 29.6081 154.348 29.3372C155.12 29.0394 155.85 28.5685 156.54 27.9246C157.23 27.3073 157.879 26.5036 158.486 25.5134C159.12 24.4964 159.541 23.3473 159.747 22.0661L160.675 16.5007C160.777 15.8068 160.733 15.1137 160.543 14.4214C160.379 13.729 160.055 13.1175 159.572 12.587C159.089 12.0297 158.433 11.5935 157.605 11.2782C156.776 10.9363 155.788 10.7686 154.642 10.7752C153.548 10.7814 152.55 11.0005 151.646 11.4323C150.741 11.8642 149.945 12.4554 149.256 13.206C148.566 13.93 147.998 14.7999 147.551 15.8159C147.103 16.8318 146.789 17.9402 146.61 19.1413L146.301 21.1431C146.198 21.757 146.148 22.4107 146.152 23.104C146.158 24.0373 146.269 24.9167 146.487 25.7421C146.732 26.5407 147.083 27.2454 147.539 27.8561C147.996 28.4402 148.585 28.9035 149.307 29.246C150.029 29.5886 150.897 29.7569 151.91 29.7511Z" fill="#1E1E1E" fill-opacity="0.5"/>
</svg>
