<svg width="500" height="180" viewBox="0 0 494 180" fill="none" xmlns="http://www.w3.org/2000/svg">
<path d="M236.539 18.823L232.252 45.488L230.812 45.4962L235.099 18.8312L225.299 18.8873L225.492 17.6062L246.532 17.4857L246.339 18.7669L236.539 18.823ZM253.476 45.3664L256.604 25.9082L249.805 25.9471L249.998 24.746L258.158 24.6993L257.54 28.6629L257.66 28.6622C258.03 28.0467 258.427 27.4978 258.851 27.0154C259.275 26.5063 259.752 26.0902 260.284 25.7671C260.842 25.4173 261.467 25.147 262.159 24.9564C262.851 24.7658 263.664 24.6678 264.597 24.6624L268.957 24.6375L268.765 25.9586L264.325 25.984C262.565 25.9941 261.034 26.4829 259.733 27.4503C259.123 27.9072 258.553 28.5104 258.024 29.2601C257.494 29.9832 257.153 30.8518 256.999 31.866L254.836 45.3587L253.476 45.3664ZM285.46 45.1833L286.193 40.499L286.073 40.4997C285.308 42.0508 284.342 43.3097 283.174 44.2764C282.033 45.2163 280.556 45.6914 278.742 45.7018C277.623 45.7082 276.635 45.5272 275.779 45.1587C274.924 44.7636 274.201 44.2211 273.61 43.5311C273.046 42.841 272.615 42.0168 272.316 41.0585C272.017 40.0735 271.864 38.9944 271.857 37.8211C271.847 35.9811 272.05 34.2332 272.467 32.5775C272.884 30.9217 273.503 29.4648 274.322 28.2068C275.142 26.9488 276.149 25.9563 277.345 25.2294C278.568 24.4758 279.952 24.0945 281.499 24.0856C283.259 24.0756 284.688 24.4541 285.785 25.2211C286.883 25.9615 287.635 26.9572 288.042 28.2082L288.202 28.2073L288.781 24.5239L290.141 24.5162L286.82 45.1755L285.46 45.1833ZM278.975 44.4604C279.855 44.4554 280.668 44.3174 281.413 44.0465C282.185 43.7487 282.915 43.2778 283.605 42.6339C284.321 41.9631 284.983 41.1326 285.591 40.1425C286.198 39.1256 286.605 37.99 286.811 36.7354L287.739 31.05C287.841 30.3561 287.797 29.663 287.607 28.9707C287.443 28.2783 287.119 27.6668 286.636 27.1363C286.153 26.579 285.497 26.1428 284.669 25.8275C283.84 25.4856 282.853 25.3179 281.706 25.3245C280.613 25.3307 279.614 25.5498 278.71 25.9816C277.805 26.4135 277.009 27.0047 276.32 27.7554C275.657 28.5058 275.102 29.389 274.655 30.4049C274.207 31.4208 273.894 32.516 273.714 33.6904L273.366 35.8924C273.263 36.5063 273.213 37.16 273.217 37.8533C273.223 38.7866 273.334 39.6526 273.552 40.4514C273.797 41.25 274.148 41.9547 274.604 42.5654C275.061 43.1495 275.65 43.6128 276.372 43.9553C277.094 44.2979 277.962 44.4662 278.975 44.4604ZM296.444 45.1204L299.766 24.4611L301.126 24.4533L300.392 29.0975L300.552 29.0966C301.316 27.4922 302.256 26.2335 303.371 25.3204C304.485 24.4074 305.923 23.9458 307.683 23.9357C309.443 23.9256 310.806 24.4245 311.771 25.4323C312.737 26.4135 313.225 27.8107 313.235 29.624C313.238 29.9973 313.213 30.3842 313.162 30.7845C313.138 31.1846 313.1 31.5848 313.049 31.9851L310.924 45.0375L309.564 45.0453L311.65 32.1131C311.701 31.7395 311.739 31.3526 311.763 30.9525C311.814 30.5522 311.839 30.1787 311.837 29.832C311.819 26.7121 310.316 25.1607 307.33 25.1778C306.396 25.1831 305.491 25.3883 304.613 25.7933C303.735 26.1717 302.939 26.8163 302.224 27.727C302.039 27.9681 301.827 28.2626 301.589 28.6107C301.351 28.9321 301.113 29.3201 300.876 29.7748C300.638 30.2028 300.415 30.6841 300.204 31.2187C300.021 31.7264 299.877 32.2739 299.774 32.8611L297.804 45.1126L296.444 45.1204ZM328.43 45.4173C324.297 45.4409 321.329 44.1112 319.527 41.4282L320.603 40.622C321.463 41.8971 322.535 42.8243 323.819 43.4036C325.102 43.9563 326.664 44.2274 328.504 44.2168C330.717 44.2042 332.474 43.7408 333.776 42.8266C335.104 41.9123 335.763 40.5619 335.753 38.7752C335.745 37.5219 335.34 36.6309 334.537 36.1022C333.734 35.5467 332.625 35.2064 331.211 35.0812L328.09 34.7791C327.289 34.7036 326.542 34.5746 325.847 34.3919C325.153 34.1825 324.538 33.8927 324.002 33.5224C323.493 33.152 323.091 32.6743 322.794 32.0893C322.497 31.5043 322.347 30.7852 322.342 29.9319C322.336 28.8652 322.544 27.944 322.966 27.1683C323.388 26.3925 323.958 25.7626 324.675 25.2784C325.419 24.7675 326.27 24.4026 327.229 24.1838C328.214 23.9382 329.253 23.8122 330.347 23.8059C331.387 23.8 332.307 23.8881 333.108 24.0701C333.936 24.2254 334.67 24.4479 335.312 24.7375C335.954 25.0272 336.502 25.3707 336.958 25.7681C337.44 26.1654 337.856 26.5763 338.205 27.001L337.17 27.8869C336.901 27.5151 336.579 27.157 336.204 26.8125C335.829 26.4413 335.36 26.1239 334.799 25.8605C334.237 25.597 333.582 25.3874 332.835 25.2317C332.087 25.076 331.22 25.001 330.234 25.0066C328.207 25.0182 326.609 25.4274 325.441 26.2341C324.272 27.0408 323.692 28.2441 323.701 29.8441C323.709 31.1241 324.114 32.0284 324.917 32.5572C325.72 33.0859 326.842 33.4128 328.282 33.5379L331.364 33.8403C332.138 33.9159 332.872 34.045 333.566 34.2277C334.261 34.4104 334.862 34.6869 335.371 35.0574C335.907 35.4276 336.323 35.9053 336.619 36.4902C336.943 37.0751 337.107 37.7941 337.112 38.6475C337.118 39.7674 336.897 40.7554 336.449 41.6113C336 42.4406 335.391 43.1374 334.621 43.7018C333.851 44.2662 332.933 44.6848 331.868 44.9576C330.803 45.257 329.657 45.4103 328.43 45.4173ZM350.054 45.2935C349.654 45.2958 349.347 45.1775 349.132 44.9387C348.918 44.7266 348.81 44.4339 348.807 44.0606C348.807 43.9272 348.819 43.7538 348.844 43.5404C348.87 43.3269 348.908 43.0333 348.959 42.6597L353.929 16.3908L345.849 16.4371L346.042 15.2359L355.522 15.1817L350.126 43.813L350.567 43.9705L360.566 36.7931L361.291 37.669L352.965 43.7168C352.195 44.2545 351.611 44.6445 351.212 44.8868C350.814 45.1558 350.428 45.2913 350.054 45.2935ZM381.396 44.634L382.129 39.9497L382.009 39.9504C381.244 41.5015 380.278 42.7604 379.11 43.7271C377.969 44.667 376.492 45.1421 374.678 45.1525C373.558 45.1589 372.571 44.9779 371.715 44.6094C370.86 44.2143 370.137 43.6718 369.546 42.9818C368.982 42.2917 368.551 41.4675 368.252 40.5092C367.953 39.5242 367.8 38.4451 367.793 37.2718C367.783 35.4318 367.986 33.6839 368.403 32.0282C368.82 30.3724 369.439 28.9155 370.258 27.6575C371.078 26.3994 372.085 25.407 373.281 24.6801C374.504 23.9265 375.888 23.5452 377.435 23.5363C379.195 23.5263 380.624 23.9047 381.721 24.6718C382.819 25.4122 383.571 26.4079 383.978 27.6589L384.138 27.658L384.717 23.9746L386.077 23.9669L382.756 44.6262L381.396 44.634ZM374.911 43.9111C375.791 43.9061 376.604 43.7681 377.349 43.4972C378.121 43.1994 378.851 42.7285 379.541 42.0846C380.257 41.4138 380.919 40.5833 381.527 39.5932C382.134 38.5763 382.541 37.4407 382.747 36.1861L383.675 30.5007C383.777 29.8068 383.733 29.1137 383.543 28.4214C383.379 27.729 383.055 27.1175 382.572 26.587C382.089 26.0297 381.433 25.5935 380.605 25.2782C379.776 24.9363 378.788 24.7686 377.642 24.7752C376.548 24.7814 375.55 25.0005 374.646 25.4323C373.741 25.8642 372.945 26.4554 372.256 27.206C371.593 27.9565 371.038 28.8397 370.591 29.8556C370.143 30.8715 369.83 31.9667 369.65 33.1411L369.302 35.3431C369.199 35.957 369.149 36.6107 369.153 37.304C369.159 38.2373 369.27 39.1033 369.488 39.9021C369.733 40.7007 370.084 41.4054 370.54 42.0161C370.997 42.6002 371.586 43.0635 372.308 43.406C373.03 43.7485 373.898 43.9169 374.911 43.9111ZM397.902 45.0195C397.502 45.0218 397.182 44.917 396.941 44.705C396.726 44.4929 396.618 44.2268 396.616 43.9068C396.615 43.6935 396.614 43.4802 396.612 43.2669C396.638 43.0534 396.689 42.7331 396.767 42.306L399.628 25.0893L392.108 25.1323L392.302 23.9312L398.541 23.8955C399.421 23.8904 399.939 23.4475 400.094 22.5666L401.02 16.6012L402.38 16.5934L401.221 23.8801L411.301 23.8224L411.108 25.0236L400.988 25.0815L397.974 43.4991L398.375 43.6968L409.016 36.9557L409.702 37.9118L400.854 43.5226C400.137 44.0067 399.565 44.37 399.14 44.6124C398.715 44.8815 398.302 45.0172 397.902 45.0195ZM426.889 17.2931C426.355 17.2961 425.995 17.2049 425.807 17.0193C425.619 16.8337 425.525 16.6209 425.523 16.3809C425.522 16.2209 425.561 15.9807 425.639 15.6602C425.717 15.3131 425.876 15.0455 426.115 14.8575C426.353 14.6428 426.699 14.5341 427.153 14.5315C427.686 14.5285 428.047 14.6197 428.234 14.8053C428.422 14.9909 428.517 15.2037 428.518 15.4437C428.519 15.6037 428.48 15.8439 428.402 16.1644C428.324 16.5115 428.166 16.7924 427.927 17.0071C427.688 17.1952 427.342 17.2905 426.889 17.2931ZM422.526 44.8785C422.1 44.8809 421.779 44.7628 421.564 44.524C421.35 44.3119 421.241 44.0192 421.239 43.6459C421.239 43.5125 421.251 43.3524 421.277 43.1656C421.302 42.9788 421.354 42.6585 421.431 42.2047L424.692 24.9458L416.572 24.9923L416.766 23.7911L426.285 23.7366L422.598 43.3581L422.959 43.556L432.878 36.4191L433.603 37.295L425.437 43.2618C424.667 43.7996 424.083 44.2029 423.684 44.4719C423.286 44.7408 422.9 44.8764 422.526 44.8785ZM447.75 44.7341C446.524 44.7411 445.443 44.5473 444.507 44.1526C443.571 43.758 442.782 43.2158 442.138 42.5262C441.493 41.8099 441.009 40.9726 440.683 40.0145C440.358 39.0296 440.191 37.9639 440.185 36.8173C440.173 34.7106 440.402 32.816 440.872 31.1332C441.369 29.4237 442.054 27.9797 442.928 26.8014C443.828 25.6229 444.902 24.7234 446.152 24.1029C447.429 23.4556 448.827 23.1276 450.347 23.1189C451.573 23.1118 452.654 23.3056 453.59 23.7003C454.526 24.0949 455.315 24.6504 455.96 25.3668C456.604 26.0564 457.088 26.8937 457.414 27.8785C457.739 28.8366 457.906 29.889 457.912 31.0357C457.924 33.169 457.682 35.0771 457.185 36.7599C456.714 38.4426 456.029 39.8733 455.129 41.0518C454.256 42.2301 453.181 43.143 451.905 43.7903C450.655 44.4108 449.27 44.7254 447.75 44.7341ZM447.823 43.4936C450.117 43.4805 451.952 42.7367 453.331 41.2621C454.709 39.7608 455.617 37.7023 456.055 35.0864L456.403 33.0043C456.454 32.604 456.492 32.2705 456.518 32.0037C456.543 31.7102 456.554 31.3368 456.551 30.8835C456.546 29.9235 456.407 29.0443 456.136 28.2458C455.891 27.4472 455.514 26.7693 455.004 26.2122C454.494 25.6285 453.838 25.1789 453.037 24.8635C452.261 24.5212 451.34 24.3532 450.274 24.3593C447.98 24.3724 446.145 25.1296 444.767 26.6309C443.388 28.1054 442.48 30.1507 442.042 32.7666L441.694 34.8486C441.643 35.2489 441.605 35.5958 441.58 35.8893C441.554 36.1561 441.543 36.5161 441.546 36.9695C441.551 37.9295 441.676 38.8088 441.921 39.6074C442.192 40.4058 442.583 41.0969 443.093 41.6807C443.603 42.2378 444.245 42.6874 445.021 43.0297C445.822 43.3451 446.757 43.4997 447.823 43.4936ZM464.332 44.1591L467.653 23.4998L469.013 23.492L468.28 28.1363L468.44 28.1353C469.204 26.5309 470.144 25.2722 471.258 24.3591C472.373 23.4461 473.811 22.9845 475.571 22.9744C477.331 22.9644 478.693 23.4632 479.659 24.471C480.625 25.4522 481.113 26.8494 481.123 28.6627C481.125 29.0361 481.101 29.4229 481.05 29.8232C481.026 30.2233 480.988 30.6235 480.937 31.0238L478.811 44.0762L477.451 44.084L479.537 31.1519C479.589 30.7782 479.626 30.3913 479.651 29.9912C479.702 29.5909 479.726 29.2174 479.724 28.8707C479.707 25.7508 478.204 24.1994 475.218 24.2165C474.284 24.2218 473.379 24.427 472.501 24.832C471.623 25.2104 470.827 25.855 470.112 26.7657C469.927 27.0068 469.715 27.3014 469.477 27.6494C469.239 27.9708 469.001 28.3588 468.764 28.8135C468.526 29.2415 468.302 29.7228 468.092 30.2574C467.908 30.7651 467.765 31.3126 467.662 31.8999L465.692 44.1513L464.332 44.1591Z" fill="#1E1E1E" fill-opacity="0.1"/>
<path d="M224.692 164.537L229.172 136.591L245.612 136.497L245.419 137.778L230.419 137.864L228.527 149.715L242.967 149.632L242.774 150.913L228.294 150.996L226.325 163.248L241.324 163.162L241.132 164.443L224.692 164.537ZM263.209 159.636L263.089 159.637C262.324 161.188 261.358 162.447 260.19 163.414C259.049 164.354 257.572 164.829 255.759 164.839C254.639 164.845 253.651 164.664 252.795 164.296C251.94 163.901 251.217 163.358 250.626 162.668C250.062 161.978 249.631 161.154 249.332 160.196C249.033 159.211 248.88 158.132 248.873 156.958C248.863 155.118 249.066 153.371 249.483 151.715C249.9 150.059 250.519 148.602 251.338 147.344C252.158 146.086 253.165 145.094 254.361 144.367C255.584 143.613 256.968 143.232 258.515 143.223C260.275 143.213 261.704 143.591 262.801 144.358C263.899 145.099 264.651 146.095 265.058 147.346L265.218 147.345L267.226 134.693L268.586 134.685L263.836 164.313L262.476 164.321L263.209 159.636ZM255.991 163.598C256.871 163.593 257.684 163.455 258.429 163.184C259.201 162.886 259.931 162.415 260.621 161.771C261.337 161.1 261.999 160.27 262.607 159.28C263.214 158.263 263.621 157.127 263.827 155.873L264.755 150.187C264.857 149.493 264.813 148.8 264.623 148.108C264.459 147.416 264.135 146.804 263.652 146.274C263.169 145.716 262.513 145.28 261.685 144.965C260.856 144.623 259.869 144.455 258.722 144.462C257.629 144.468 256.63 144.687 255.726 145.119C254.821 145.551 254.025 146.142 253.336 146.893C252.673 147.643 252.118 148.526 251.671 149.542C251.223 150.558 250.91 151.653 250.73 152.828L250.382 155.03C250.279 155.644 250.23 156.297 250.233 156.991C250.239 157.924 250.35 158.79 250.568 159.589C250.813 160.387 251.164 161.092 251.62 161.703C252.077 162.287 252.666 162.75 253.388 163.093C254.11 163.435 254.978 163.604 255.991 163.598ZM283.985 137.117C283.451 137.12 283.091 137.029 282.903 136.843C282.715 136.658 282.621 136.445 282.619 136.205C282.618 136.045 282.657 135.805 282.735 135.484C282.813 135.137 282.972 134.869 283.211 134.681C283.449 134.467 283.795 134.358 284.249 134.355C284.782 134.352 285.143 134.444 285.33 134.629C285.518 134.815 285.613 135.028 285.614 135.268C285.615 135.428 285.576 135.668 285.498 135.988C285.42 136.335 285.262 136.616 285.023 136.831C284.784 137.019 284.438 137.114 283.985 137.117ZM279.622 164.702C279.196 164.705 278.875 164.587 278.66 164.348C278.446 164.136 278.338 163.843 278.335 163.47C278.335 163.336 278.347 163.176 278.373 162.99C278.398 162.803 278.45 162.482 278.527 162.029L281.788 144.77L273.669 144.816L273.862 143.615L283.381 143.561L279.694 163.182L280.055 163.38L289.974 156.243L290.699 157.119L282.533 163.086C281.763 163.623 281.179 164.027 280.78 164.296C280.382 164.565 279.996 164.7 279.622 164.702ZM302.966 164.569C302.566 164.571 302.246 164.466 302.005 164.254C301.79 164.042 301.682 163.776 301.68 163.456C301.679 163.243 301.678 163.029 301.676 162.816C301.702 162.603 301.753 162.282 301.831 161.855L304.692 144.639L297.173 144.682L297.366 143.48L303.606 143.445C304.486 143.44 305.003 142.997 305.158 142.116L306.084 136.15L307.444 136.143L306.285 143.429L316.365 143.372L316.172 144.573L306.052 144.631L303.038 163.048L303.439 163.246L314.08 156.505L314.766 157.461L305.918 163.072C305.201 163.556 304.629 163.919 304.204 164.162C303.779 164.431 303.366 164.566 302.966 164.569ZM331.953 136.842C331.419 136.845 331.059 136.754 330.871 136.569C330.683 136.383 330.589 136.17 330.587 135.93C330.586 135.77 330.625 135.53 330.703 135.209C330.781 134.862 330.94 134.595 331.179 134.407C331.417 134.192 331.763 134.083 332.217 134.081C332.75 134.078 333.111 134.169 333.298 134.355C333.486 134.54 333.581 134.753 333.582 134.993C333.583 135.153 333.544 135.393 333.466 135.714C333.388 136.061 333.23 136.342 332.991 136.556C332.752 136.744 332.406 136.84 331.953 136.842ZM327.59 164.428C327.164 164.43 326.843 164.312 326.628 164.073C326.414 163.861 326.306 163.568 326.303 163.195C326.303 163.062 326.315 162.902 326.341 162.715C326.366 162.528 326.418 162.208 326.495 161.754L329.756 144.495L321.636 144.542L321.83 143.34L331.349 143.286L327.662 162.907L328.023 163.105L337.942 155.968L338.667 156.844L330.501 162.811C329.731 163.349 329.147 163.752 328.748 164.021C328.35 164.29 327.964 164.426 327.59 164.428ZM345.412 163.846L348.734 143.186L350.094 143.179L349.36 147.823L349.52 147.822C350.284 146.218 351.224 144.959 352.339 144.046C353.453 143.133 354.891 142.671 356.651 142.661C358.411 142.651 359.774 143.15 360.739 144.158C361.705 145.139 362.193 146.536 362.203 148.349C362.205 148.723 362.181 149.109 362.13 149.51C362.106 149.91 362.068 150.31 362.017 150.71L359.892 163.763L358.532 163.771L360.618 150.838C360.669 150.465 360.707 150.078 360.731 149.678C360.782 149.277 360.806 148.904 360.805 148.557C360.787 145.437 359.284 143.886 356.298 143.903C355.364 143.908 354.459 144.114 353.581 144.519C352.703 144.897 351.907 145.542 351.192 146.452C351.007 146.693 350.795 146.988 350.557 147.336C350.319 147.657 350.081 148.045 349.844 148.5C349.606 148.928 349.383 149.409 349.172 149.944C348.988 150.452 348.845 150.999 348.742 151.586L346.772 163.838L345.412 163.846ZM374.524 172.159C372.978 172.168 371.67 171.936 370.6 171.462C369.557 170.988 368.687 170.326 367.989 169.477L368.983 168.551C369.548 169.294 370.271 169.877 371.154 170.298C372.063 170.72 373.197 170.927 374.557 170.919C376.69 170.907 378.421 170.35 379.748 169.249C381.075 168.148 381.931 166.357 382.317 163.874L383.128 158.79L383.008 158.79C382.243 160.341 381.277 161.6 380.109 162.567C378.968 163.507 377.491 163.982 375.677 163.992C374.558 163.999 373.57 163.818 372.714 163.449C371.859 163.054 371.136 162.512 370.545 161.822C369.981 161.132 369.55 160.307 369.251 159.349C368.952 158.364 368.799 157.285 368.792 156.112C368.782 154.298 368.985 152.577 369.403 150.948C369.847 149.292 370.478 147.849 371.298 146.617C372.117 145.359 373.125 144.367 374.321 143.64C375.517 142.913 376.888 142.545 378.435 142.536C380.195 142.526 381.624 142.905 382.721 143.672C383.846 144.412 384.611 145.408 385.018 146.659L385.138 146.658L385.717 142.975L387.077 142.967L383.639 164.187C383.201 166.936 382.199 168.942 380.633 170.204C379.067 171.493 377.031 172.145 374.524 172.159ZM375.91 162.751C376.79 162.746 377.603 162.608 378.348 162.337C379.12 162.039 379.85 161.569 380.54 160.925C381.23 160.307 381.879 159.504 382.486 158.513C383.12 157.496 383.541 156.347 383.747 155.066L384.675 149.501C384.777 148.807 384.733 148.114 384.543 147.421C384.379 146.729 384.055 146.118 383.572 145.587C383.089 145.03 382.433 144.593 381.605 144.278C380.776 143.936 379.788 143.769 378.642 143.775C377.548 143.781 376.55 144 375.646 144.432C374.741 144.864 373.945 145.455 373.256 146.206C372.566 146.93 371.998 147.8 371.551 148.816C371.103 149.832 370.789 150.94 370.61 152.141L370.301 154.143C370.198 154.757 370.148 155.411 370.152 156.104C370.158 157.037 370.269 157.917 370.487 158.742C370.732 159.541 371.083 160.245 371.539 160.856C371.996 161.44 372.585 161.903 373.307 162.246C374.029 162.589 374.897 162.757 375.91 162.751Z" fill="#1E1E1E" fill-opacity="0.1"/>
<path d="M4.13187 103.529L8.61193 75.5826L10.0519 75.5743L5.76451 102.239L19.8843 102.158L19.6916 103.44L4.13187 103.529ZM38.0006 76.2543C37.4673 76.2574 37.1068 76.1661 36.919 75.9805C36.7313 75.7949 36.6368 75.5821 36.6354 75.3421C36.6345 75.1821 36.6731 74.9419 36.7513 74.6215C36.8293 74.2743 36.9877 74.0068 37.2267 73.8187C37.4654 73.604 37.8115 73.4954 38.2648 73.4928C38.7982 73.4897 39.1587 73.581 39.3464 73.7666C39.5341 73.9522 39.6287 74.165 39.6301 74.405C39.631 74.565 39.5924 74.8052 39.5142 75.1256C39.4362 75.4728 39.2778 75.7537 39.039 75.9684C38.8001 76.1564 38.454 76.2517 38.0006 76.2543ZM33.6385 103.84C33.2118 103.842 32.8912 103.724 32.6765 103.485C32.4619 103.273 32.3536 102.98 32.3514 102.607C32.3507 102.474 32.3631 102.314 32.3887 102.127C32.4143 101.94 32.4658 101.62 32.5432 101.166L35.8044 83.907L27.6845 83.9535L27.8777 82.7524L37.3975 82.6979L33.7098 102.319L34.0709 102.517L43.9902 95.3803L44.7153 96.2562L36.5493 102.223C35.779 102.761 35.1947 103.164 34.7962 103.433C34.3977 103.702 34.0118 103.838 33.6385 103.84ZM51.4598 103.258L54.7816 82.5984L56.1416 82.5906L55.4082 87.2348L55.5682 87.2339C56.3323 85.6295 57.2718 84.3708 58.3866 83.4577C59.5014 82.5447 60.9388 82.0831 62.6987 82.073C64.4587 82.0629 65.8216 82.5618 66.7874 83.5696C67.753 84.5508 68.241 85.948 68.2514 87.7613C68.2535 88.1346 68.2291 88.5215 68.178 88.9218C68.1537 89.3219 68.1159 89.7221 68.0649 90.1224L65.9396 103.175L64.5796 103.183L66.6656 90.2504C66.7168 89.8768 66.7546 89.4899 66.779 89.0898C66.83 88.6895 66.8545 88.316 66.8526 87.9693C66.8347 84.8494 65.3325 83.298 62.3458 83.3151C61.4125 83.3204 60.507 83.5256 59.6293 83.9306C58.7515 84.309 57.9551 84.9536 57.2403 85.8643C57.0551 86.1054 56.8434 86.3999 56.6054 86.748C56.3672 87.0693 56.1294 87.4574 55.892 87.9121C55.6545 88.3401 55.4306 88.8214 55.2203 89.356C55.0365 89.8637 54.893 90.4112 54.7897 90.9984L52.8198 103.25L51.4598 103.258ZM80.5723 111.571C79.0257 111.58 77.7176 111.347 76.6482 110.874C75.6055 110.4 74.735 109.738 74.0368 108.889L75.0315 107.963C75.5958 108.706 76.3192 109.289 77.2016 109.71C78.1107 110.132 79.2452 110.339 80.6052 110.331C82.7385 110.319 84.4687 109.762 85.7957 108.661C87.1228 107.56 87.9792 105.769 88.365 103.286L89.1759 98.2017L89.0559 98.2024C88.2914 99.7534 87.3253 101.012 86.1575 101.979C85.0162 102.919 83.5389 103.394 81.7256 103.404C80.6056 103.411 79.6179 103.23 78.7624 102.861C77.9068 102.466 77.1837 101.924 76.593 101.234C76.0291 100.544 75.5977 99.7194 75.2989 98.7611C74.9999 97.7762 74.847 96.697 74.8403 95.5237C74.8299 93.7104 75.0334 91.9892 75.4508 90.3601C75.8946 88.7042 76.5264 87.2606 77.346 86.0292C78.1655 84.7712 79.1731 83.7787 80.369 83.0519C81.5649 82.325 82.9361 81.9571 84.4827 81.9483C86.2427 81.9382 87.6716 82.3167 88.7693 83.0838C89.8936 83.824 90.6593 84.8196 91.0665 86.0707L91.1865 86.07L91.7654 82.3866L93.1254 82.3788L89.6868 103.599C89.2492 106.348 88.2473 108.354 86.6812 109.616C85.1152 110.905 83.0789 111.557 80.5723 111.571ZM81.9584 102.163C82.8384 102.158 83.651 102.02 84.3961 101.749C85.1678 101.451 85.8984 100.98 86.5881 100.337C87.2779 99.7192 87.9266 98.9155 88.5343 97.9253C89.1685 96.9084 89.5886 95.7593 89.7946 94.4781L90.7227 88.9127C90.8254 88.2187 90.7815 87.5256 90.5908 86.8334C90.4269 86.141 90.1033 85.5295 89.6203 84.9989C89.1371 84.4417 88.4813 84.0054 87.6528 83.6902C86.8241 83.3482 85.8365 83.1806 84.6898 83.1871C83.5965 83.1934 82.5978 83.4124 81.6936 83.8443C80.7893 84.2761 79.9927 84.8674 79.3037 85.618C78.6145 86.342 78.0461 87.2119 77.5986 88.2278C77.1511 89.2437 76.8374 90.3522 76.6576 91.5532L76.3491 93.555C76.2459 94.169 76.1963 94.8226 76.2003 95.5159C76.2056 96.4492 76.3173 97.3286 76.5354 98.1541C76.78 98.9527 77.1307 99.6573 77.5875 100.268C78.0442 100.852 78.6335 101.315 79.3555 101.658C80.0775 102.001 80.9451 102.169 81.9584 102.163ZM112.881 98.266L112.761 98.2666C111.997 99.8444 111.044 101.103 109.903 102.043C108.788 102.956 107.364 103.418 105.63 103.428C103.87 103.438 102.494 102.952 101.502 101.971C100.51 100.963 100.008 99.553 99.9978 97.7397C99.9957 97.3664 100.02 96.9796 100.071 96.5793C100.122 96.179 100.173 95.7787 100.224 95.3784L102.35 82.326L103.71 82.3182L101.624 95.2504C101.572 95.624 101.521 96.011 101.47 96.4113C101.446 96.8114 101.435 97.1848 101.437 97.5315C101.454 100.651 102.957 102.203 105.943 102.186C106.877 102.18 107.782 101.989 108.66 101.61C109.564 101.205 110.361 100.547 111.049 99.6365C111.234 99.3954 111.446 99.1142 111.684 98.7928C111.922 98.4448 112.16 98.0567 112.397 97.6287C112.635 97.174 112.845 96.6928 113.029 96.1851C113.239 95.6505 113.396 95.0896 113.499 94.5023L115.469 82.2509L116.829 82.2431L113.508 102.902L112.148 102.91L112.881 98.266ZM133.937 75.705C133.403 75.7081 133.043 75.6168 132.855 75.4312C132.667 75.2456 132.573 75.0328 132.571 74.7928C132.57 74.6328 132.609 74.3926 132.687 74.0721C132.765 73.725 132.924 73.4575 133.163 73.2694C133.401 73.0547 133.747 72.9461 134.201 72.9435C134.734 72.9404 135.095 73.0317 135.282 73.2173C135.47 73.4029 135.565 73.6157 135.566 73.8557C135.567 74.0157 135.528 74.2559 135.45 74.5763C135.372 74.9235 135.214 75.2044 134.975 75.4191C134.736 75.6071 134.39 75.7024 133.937 75.705ZM129.574 103.29C129.148 103.293 128.827 103.175 128.612 102.936C128.398 102.724 128.289 102.431 128.287 102.058C128.287 101.924 128.299 101.764 128.325 101.578C128.35 101.391 128.402 101.07 128.479 100.617L131.74 83.3577L123.62 83.4042L123.814 82.2031L133.333 82.1486L129.646 101.77L130.007 101.968L139.926 94.831L140.651 95.7069L132.485 101.674C131.715 102.212 131.131 102.615 130.732 102.884C130.334 103.153 129.948 103.288 129.574 103.29ZM155.398 103.143C151.265 103.166 148.297 101.837 146.495 99.1535L147.571 98.3473C148.431 99.6224 149.503 100.55 150.787 101.129C152.07 101.682 153.632 101.953 155.472 101.942C157.685 101.929 159.442 101.466 160.744 100.552C162.072 99.6377 162.731 98.2872 162.72 96.5006C162.713 95.2472 162.308 94.3562 161.505 93.8275C160.702 93.2721 159.593 92.9317 158.179 92.8065L155.057 92.5044C154.257 92.429 153.51 92.2999 152.815 92.1172C152.121 91.9078 151.506 91.618 150.97 91.2477C150.461 90.8773 150.059 90.3996 149.762 89.8146C149.465 89.2297 149.315 88.5105 149.31 87.6572C149.304 86.5905 149.512 85.6693 149.934 84.8936C150.356 84.1178 150.926 83.4879 151.643 83.0038C152.387 82.4928 153.238 82.1279 154.197 81.9091C155.182 81.6635 156.221 81.5375 157.315 81.5313C158.355 81.5253 159.275 81.6134 160.076 81.7955C160.904 81.9507 161.638 82.1732 162.28 82.4628C162.922 82.7525 163.47 83.096 163.926 83.4934C164.408 83.8907 164.824 84.3016 165.173 84.7263L164.138 85.6123C163.869 85.2405 163.547 84.8823 163.172 84.5378C162.797 84.1666 162.328 83.8493 161.767 83.5858C161.205 83.3224 160.55 83.1128 159.803 82.957C159.055 82.8013 158.188 82.7263 157.202 82.7319C155.175 82.7435 153.577 83.1527 152.408 83.9594C151.24 84.7661 150.66 85.9694 150.669 87.5694C150.676 88.8494 151.082 89.7538 151.885 90.2825C152.688 90.8112 153.81 91.1382 155.25 91.2632L158.332 91.5656C159.106 91.6412 159.84 91.7703 160.534 91.953C161.229 92.1357 161.83 92.4123 162.339 92.7827C162.875 93.153 163.291 93.6306 163.587 94.2156C163.911 94.8004 164.075 95.5195 164.08 96.3728C164.086 97.4928 163.865 98.4807 163.417 99.3366C162.968 100.166 162.359 100.863 161.589 101.427C160.819 101.992 159.901 102.41 158.836 102.683C157.771 102.982 156.625 103.136 155.398 103.143ZM176.902 103.019C176.502 103.022 176.182 102.917 175.941 102.705C175.726 102.493 175.618 102.227 175.616 101.907C175.615 101.693 175.614 101.48 175.612 101.267C175.638 101.053 175.689 100.733 175.767 100.306L178.628 83.0893L171.108 83.1323L171.302 81.9312L177.541 81.8955C178.421 81.8904 178.939 81.4474 179.094 80.5665L180.02 74.6011L181.38 74.5934L180.221 81.8801L190.301 81.8224L190.108 83.0235L179.988 83.0815L176.974 101.499L177.375 101.697L188.016 94.9557L188.702 95.9118L179.854 101.523C179.137 102.007 178.565 102.37 178.14 102.612C177.715 102.881 177.302 103.017 176.902 103.019ZM205.889 75.293C205.355 75.2961 204.995 75.2048 204.807 75.0192C204.619 74.8336 204.525 74.6208 204.523 74.3808C204.522 74.2208 204.561 73.9806 204.639 73.6602C204.717 73.3131 204.876 73.0455 205.115 72.8574C205.353 72.6427 205.699 72.5341 206.153 72.5315C206.686 72.5284 207.047 72.6197 207.234 72.8053C207.422 72.9909 207.517 73.2037 207.518 73.4437C207.519 73.6037 207.48 73.8439 207.402 74.1644C207.324 74.5115 207.166 74.7924 206.927 75.0071C206.688 75.1951 206.342 75.2904 205.889 75.293ZM201.526 102.878C201.1 102.881 200.779 102.763 200.564 102.524C200.35 102.312 200.241 102.019 200.239 101.646C200.239 101.512 200.251 101.352 200.277 101.166C200.302 100.979 200.354 100.658 200.431 100.205L203.692 82.9457L195.572 82.9922L195.766 81.7911L205.285 81.7366L201.598 101.358L201.959 101.556L211.878 94.4191L212.603 95.2949L204.437 101.262C203.667 101.8 203.083 102.203 202.684 102.472C202.286 102.741 201.9 102.876 201.526 102.878ZM226.75 102.734C225.524 102.741 224.442 102.534 223.507 102.113C222.598 101.691 221.821 101.109 221.177 100.366C220.559 99.5961 220.087 98.6921 219.761 97.654C219.462 96.6157 219.309 95.4699 219.301 94.2166C219.29 92.1633 219.533 90.3352 220.03 88.7323C220.527 87.1028 221.226 85.7254 222.126 84.6002C223.027 83.475 224.102 82.6155 225.352 82.0217C226.602 81.4279 227.96 81.1268 229.427 81.1184C231.213 81.1081 232.669 81.5398 233.794 82.4134C234.946 83.2868 235.686 84.4026 236.013 85.7607L234.816 86.1676C234.435 84.8898 233.763 83.9336 232.799 83.2991C231.862 82.6644 230.714 82.351 229.354 82.3588C227.194 82.3712 225.384 83.0882 223.926 84.5099C222.467 85.905 221.545 87.8303 221.159 90.2859L220.811 92.3679C220.76 92.7948 220.722 93.1551 220.697 93.4486C220.672 93.7154 220.66 94.0354 220.663 94.4088C220.668 95.4221 220.794 96.368 221.039 97.2467C221.31 98.0985 221.701 98.8429 222.212 99.48C222.722 100.117 223.352 100.62 224.1 100.989C224.876 101.331 225.783 101.5 226.823 101.494C228.37 101.485 229.727 101.037 230.896 100.15C232.09 99.2367 233.283 97.8566 234.472 96.0097L235.555 96.5635C234.419 98.4367 233.161 99.9373 231.781 101.065C230.4 102.166 228.724 102.723 226.75 102.734ZM251.334 102.593C247.201 102.617 244.233 101.287 242.431 98.6042L243.507 97.798C244.367 99.0731 245.439 100 246.723 100.58C248.006 101.132 249.567 101.403 251.407 101.393C253.621 101.38 255.378 100.917 256.68 100.003C258.008 99.0884 258.667 97.7379 258.656 95.9513C258.649 94.6979 258.244 93.8069 257.441 93.2782C256.638 92.7228 255.529 92.3824 254.115 92.2572L250.993 91.9551C250.193 91.8796 249.446 91.7506 248.751 91.5679C248.057 91.3585 247.442 91.0687 246.906 90.6984C246.397 90.328 245.995 89.8503 245.698 89.2653C245.401 88.6804 245.25 87.9612 245.246 87.1079C245.239 86.0412 245.448 85.12 245.87 84.3443C246.292 83.5685 246.862 82.9386 247.579 82.4545C248.323 81.9435 249.174 81.5786 250.133 81.3598C251.118 81.1142 252.157 80.9882 253.251 80.982C254.291 80.976 255.211 81.0641 256.012 81.2461C256.84 81.4014 257.574 81.6239 258.216 81.9135C258.858 82.2032 259.406 82.5467 259.862 82.9441C260.344 83.3414 260.76 83.7523 261.109 84.177L260.074 85.063C259.805 84.6912 259.483 84.333 259.108 83.9885C258.732 83.6173 258.264 83.3 257.702 83.0365C257.141 82.773 256.486 82.5635 255.739 82.4077C254.991 82.252 254.124 82.177 253.137 82.1826C251.111 82.1942 249.513 82.6034 248.344 83.4101C247.176 84.2168 246.596 85.4201 246.605 87.0201C246.612 88.3001 247.018 89.2044 247.821 89.7332C248.624 90.2619 249.746 90.5889 251.186 90.7139L254.268 91.0163C255.042 91.0919 255.776 91.221 256.47 91.4037C257.165 91.5864 257.766 91.8629 258.275 92.2334C258.811 92.6036 259.227 93.0813 259.523 93.6663C259.847 94.2511 260.011 94.9701 260.016 95.8235C260.022 96.9434 259.801 97.9314 259.353 98.7873C258.904 99.6166 258.295 100.313 257.525 100.878C256.754 101.442 255.837 101.861 254.772 102.134C253.707 102.433 252.561 102.586 251.334 102.593Z" fill="#1E1E1E" fill-opacity="0.1"/>
</svg>
