<svg width="259" height="40" viewBox="0 0 259 40" fill="none" xmlns="http://www.w3.org/2000/svg">
<path d="M1.13187 31.5287L5.61193 3.5826L7.05191 3.57436L2.76451 30.2393L16.8843 30.1585L16.6916 31.4396L1.13187 31.5287ZM35.0006 4.25434C34.4673 4.2574 34.1068 4.16613 33.919 3.98053C33.7313 3.79494 33.6368 3.58214 33.6354 3.34215C33.6345 3.18215 33.6731 2.94192 33.7513 2.62147C33.8293 2.27435 33.9877 2.00677 34.2267 1.81874C34.4654 1.60403 34.8115 1.49538 35.2648 1.49279C35.7982 1.48973 36.1587 1.581 36.3464 1.7666C36.5341 1.95219 36.6287 2.16499 36.6301 2.40498C36.631 2.56498 36.5924 2.80521 36.5142 3.12566C36.4362 3.47278 36.2778 3.75369 36.039 3.9684C35.8001 4.15643 35.454 4.25175 35.0006 4.25434ZM30.6385 31.8398C30.2118 31.8422 29.8912 31.7241 29.6765 31.4853C29.4619 31.2732 29.3536 30.9805 29.3514 30.6071C29.3507 30.4738 29.3631 30.3137 29.3887 30.1269C29.4143 29.9401 29.4658 29.6198 29.5432 29.166L32.8044 11.907L24.6845 11.9535L24.8777 10.7524L34.3975 10.6979L30.7098 30.3193L31.0709 30.5173L40.9902 23.3804L41.7153 24.2562L33.5493 30.2231C32.779 30.7608 32.1947 31.1642 31.7962 31.4331C31.3977 31.7021 31.0118 31.8376 30.6385 31.8398ZM48.4598 31.2577L51.7816 10.5984L53.1416 10.5906L52.4082 15.2349L52.5682 15.2339C53.3323 13.6295 54.2718 12.3708 55.3866 11.4577C56.5014 10.5447 57.9388 10.0831 59.6987 10.073C61.4587 10.063 62.8216 10.5618 63.7874 11.5696C64.753 12.5508 65.241 13.948 65.2514 15.7613C65.2535 16.1347 65.2291 16.5215 65.178 16.9218C65.1537 17.3219 65.1159 17.7221 65.0649 18.1224L62.9396 31.1748L61.5796 31.1826L63.6656 18.2504C63.7168 17.8768 63.7546 17.4899 63.779 17.0898C63.83 16.6895 63.8545 16.316 63.8526 15.9693C63.8347 12.8494 62.3325 11.298 59.3458 11.3151C58.4125 11.3204 57.507 11.5256 56.6293 11.9306C55.7515 12.309 54.9551 12.9536 54.2403 13.8643C54.0551 14.1054 53.8434 14.4 53.6054 14.748C53.3672 15.0694 53.1294 15.4574 52.892 15.9121C52.6545 16.3401 52.4306 16.8214 52.2203 17.356C52.0365 17.8637 51.893 18.4112 51.7897 18.9985L49.8198 31.2499L48.4598 31.2577ZM77.5723 39.5712C76.0257 39.58 74.7176 39.3475 73.6482 38.8736C72.6055 38.3996 71.735 37.7379 71.0368 36.8885L72.0315 35.9628C72.5958 36.7063 73.3192 37.2888 74.2016 37.7104C75.1107 38.1319 76.2452 38.3388 77.6052 38.331C79.7385 38.3188 81.4687 37.7622 82.7957 36.6612C84.1228 35.5603 84.9792 33.7687 85.365 31.2864L86.1759 26.2017L86.0559 26.2024C85.2914 27.7534 84.3253 29.0123 83.1575 29.979C82.0162 30.9189 80.5389 31.3941 78.7256 31.4044C77.6056 31.4108 76.6179 31.2298 75.7624 30.8614C74.9068 30.4663 74.1837 29.9238 73.593 29.2338C73.0291 28.5437 72.5977 27.7195 72.2989 26.7612C71.9999 25.7762 71.847 24.697 71.8403 23.5237C71.8299 21.7104 72.0334 19.9892 72.4508 18.3601C72.8946 16.7042 73.5264 15.2606 74.346 14.0292C75.1655 12.7712 76.1731 11.7787 77.369 11.0519C78.5649 10.325 79.9361 9.95715 81.4827 9.9483C83.2427 9.93822 84.6716 10.3167 85.7693 11.0838C86.8936 11.824 87.6593 12.8196 88.0665 14.0707L88.1865 14.07L88.7654 10.3866L90.1254 10.3788L86.6868 31.5989C86.2492 34.3481 85.2473 36.3538 83.6812 37.6162C82.1152 38.9052 80.0789 39.5568 77.5723 39.5712ZM78.9584 30.1631C79.8384 30.158 80.651 30.0201 81.3961 29.7491C82.1678 29.4514 82.8984 28.9805 83.5881 28.3365C84.2779 27.7193 84.9266 26.9155 85.5343 25.9254C86.1685 24.9084 86.5886 23.7593 86.7946 22.4781L87.7227 16.9127C87.8254 16.2188 87.7815 15.5257 87.5908 14.8334C87.4269 14.141 87.1033 13.5295 86.6203 12.9989C86.1371 12.4417 85.4813 12.0054 84.6528 11.6902C83.8241 11.3482 82.8365 11.1806 81.6898 11.1871C80.5965 11.1934 79.5978 11.4124 78.6936 11.8443C77.7893 12.2761 76.9927 12.8674 76.3037 13.618C75.6145 14.342 75.0461 15.2119 74.5986 16.2278C74.1511 17.2437 73.8374 18.3522 73.6576 19.5533L73.3491 21.5551C73.2459 22.169 73.1963 22.8226 73.2003 23.5159C73.2056 24.4493 73.3173 25.3286 73.5354 26.1541C73.78 26.9527 74.1307 27.6574 74.5875 28.2681C75.0442 28.8521 75.6335 29.3154 76.3555 29.658C77.0775 30.0005 77.9451 30.1689 78.9584 30.1631ZM109.881 26.266L109.761 26.2667C108.997 27.8444 108.044 29.1032 106.903 30.0431C105.788 30.9561 104.364 31.4176 102.63 31.4276C100.87 31.4376 99.4943 30.9522 98.502 29.9712C97.5096 28.9635 97.0082 27.553 96.9978 25.7397C96.9957 25.3664 97.0201 24.9796 97.0711 24.5793C97.1222 24.179 97.1732 23.7787 97.2243 23.3784L99.3496 10.326L100.71 10.3182L98.6236 23.2504C98.5724 23.624 98.5213 24.011 98.4702 24.4113C98.4458 24.8114 98.4346 25.1848 98.4366 25.5315C98.4545 28.6514 99.9567 30.2029 102.943 30.1858C103.877 30.1804 104.782 29.9886 105.66 29.6102C106.564 29.205 107.361 28.5471 108.049 27.6365C108.234 27.3954 108.446 27.1142 108.684 26.7928C108.922 26.4448 109.16 26.0568 109.397 25.6287C109.635 25.174 109.845 24.6928 110.029 24.1851C110.239 23.6505 110.396 23.0896 110.499 22.5024L112.469 10.2509L113.829 10.2431L110.508 30.9025L109.148 30.9102L109.881 26.266ZM130.937 3.70504C130.403 3.70809 130.043 3.61682 129.855 3.43123C129.667 3.24563 129.573 3.03284 129.571 2.79284C129.57 2.63284 129.609 2.39262 129.687 2.07216C129.765 1.72505 129.924 1.45747 130.163 1.26943C130.401 1.05473 130.747 0.946075 131.201 0.943479C131.734 0.940426 132.095 1.0317 132.282 1.21729C132.47 1.40289 132.565 1.61568 132.566 1.85568C132.567 2.01568 132.528 2.2559 132.45 2.57635C132.372 2.92347 132.214 3.20438 131.975 3.41909C131.736 3.60713 131.39 3.70244 130.937 3.70504ZM126.574 31.2905C126.148 31.2929 125.827 31.1747 125.612 30.936C125.398 30.7239 125.289 30.4311 125.287 30.0578C125.287 29.9245 125.299 29.7644 125.325 29.5776C125.35 29.3908 125.402 29.0705 125.479 28.6167L128.74 11.3577L120.62 11.4042L120.814 10.2031L130.333 10.1486L126.646 29.77L127.007 29.968L136.926 22.8311L137.651 23.7069L129.485 29.6738C128.715 30.2115 128.131 30.6149 127.732 30.8838C127.334 31.1528 126.948 31.2883 126.574 31.2905ZM152.398 31.1426C148.265 31.1663 145.297 29.8366 143.495 27.1535L144.571 26.3473C145.431 27.6224 146.503 28.5496 147.787 29.129C149.07 29.6816 150.632 29.9527 152.472 29.9422C154.685 29.9295 156.442 29.4661 157.744 28.552C159.072 27.6377 159.731 26.2872 159.72 24.5006C159.713 23.2473 159.308 22.3562 158.505 21.8275C157.702 21.2721 156.593 20.9318 155.179 20.8065L152.057 20.5044C151.257 20.429 150.51 20.2999 149.815 20.1172C149.121 19.9079 148.506 19.618 147.97 19.2478C147.461 18.8773 147.059 18.3996 146.762 17.8147C146.465 17.2297 146.315 16.5105 146.31 15.6572C146.304 14.5906 146.512 13.6694 146.934 12.8936C147.356 12.1178 147.926 11.4879 148.643 11.0038C149.387 10.4928 150.238 10.128 151.197 9.90914C152.182 9.66349 153.221 9.53754 154.315 9.53128C155.355 9.52533 156.275 9.61339 157.076 9.79547C157.904 9.95073 158.638 10.1732 159.28 10.4629C159.922 10.7525 160.47 11.0961 160.926 11.4935C161.408 11.8907 161.824 12.3017 162.173 12.7263L161.138 13.6123C160.869 13.2405 160.547 12.8823 160.172 12.5378C159.797 12.1666 159.328 11.8493 158.767 11.5858C158.205 11.3224 157.55 11.1128 156.803 10.9571C156.055 10.8013 155.188 10.7263 154.202 10.7319C152.175 10.7436 150.577 11.1527 149.408 11.9594C148.24 12.7661 147.66 13.9695 147.669 15.5694C147.676 16.8494 148.082 17.7538 148.885 18.2825C149.688 18.8113 150.81 19.1382 152.25 19.2633L155.332 19.5656C156.106 19.6412 156.84 19.7703 157.534 19.953C158.229 20.1357 158.83 20.4123 159.339 20.7827C159.875 21.153 160.291 21.6306 160.587 22.2156C160.911 22.8004 161.075 23.5195 161.08 24.3728C161.086 25.4928 160.865 26.4807 160.417 27.3366C159.968 28.1659 159.359 28.8627 158.589 29.4271C157.819 29.9916 156.901 30.4101 155.836 30.6829C154.771 30.9824 153.625 31.1356 152.398 31.1426ZM173.902 31.0195C173.502 31.0218 173.182 30.9169 172.941 30.705C172.726 30.4929 172.618 30.2268 172.616 29.9068C172.615 29.6935 172.614 29.4802 172.612 29.2668C172.638 29.0534 172.689 28.7331 172.767 28.3059L175.628 11.0893L168.108 11.1323L168.302 9.9312L174.541 9.89547C175.421 9.89043 175.939 9.44746 176.094 8.56656L177.02 2.60116L178.38 2.59338L177.221 9.88013L187.301 9.82241L187.108 11.0235L176.988 11.0815L173.974 29.499L174.375 29.6968L185.016 22.9557L185.702 23.9118L176.854 29.5226C176.137 30.0067 175.565 30.3699 175.14 30.6124C174.715 30.8815 174.302 31.0172 173.902 31.0195ZM202.889 3.29306C202.355 3.29611 201.995 3.20484 201.807 3.01925C201.619 2.83365 201.525 2.62086 201.523 2.38086C201.522 2.22086 201.561 1.98064 201.639 1.66018C201.717 1.31307 201.876 1.04549 202.115 0.85745C202.353 0.642745 202.699 0.534095 203.153 0.5315C203.686 0.528446 204.047 0.619717 204.234 0.805313C204.422 0.990907 204.517 1.2037 204.518 1.4437C204.519 1.6037 204.48 1.84392 204.402 2.16437C204.324 2.51149 204.166 2.7924 203.927 3.00711C203.688 3.19515 203.342 3.29046 202.889 3.29306ZM198.526 30.8785C198.1 30.8809 197.779 30.7628 197.564 30.524C197.35 30.3119 197.241 30.0192 197.239 29.6458C197.239 29.5125 197.251 29.3524 197.277 29.1656C197.302 28.9788 197.354 28.6585 197.431 28.2047L200.692 10.9458L192.572 10.9923L192.766 9.79113L202.285 9.73662L198.598 29.3581L198.959 29.556L208.878 22.4191L209.603 23.2949L201.437 29.2618C200.667 29.7995 200.083 30.2029 199.684 30.4719C199.286 30.7408 198.9 30.8764 198.526 30.8785ZM223.75 30.7341C222.524 30.7411 221.442 30.5339 220.507 30.1126C219.598 29.6912 218.821 29.1089 218.177 28.3659C217.559 27.5961 217.087 26.6921 216.761 25.654C216.462 24.6157 216.309 23.4699 216.301 22.2166C216.29 20.1633 216.533 18.3352 217.03 16.7323C217.527 15.1028 218.226 13.7254 219.126 12.6002C220.027 11.4751 221.102 10.6156 222.352 10.0217C223.602 9.4279 224.96 9.12678 226.427 9.11838C228.213 9.10815 229.669 9.53983 230.794 10.4134C231.946 11.2868 232.686 12.4026 233.013 13.7607L231.816 14.1676C231.435 12.8898 230.763 11.9336 229.799 11.2991C228.862 10.6645 227.714 10.351 226.354 10.3588C224.194 10.3712 222.384 11.0882 220.926 12.5099C219.467 13.905 218.545 15.8303 218.159 18.2859L217.811 20.3679C217.76 20.7949 217.722 21.1551 217.697 21.4486C217.672 21.7154 217.66 22.0355 217.663 22.4088C217.668 23.4221 217.794 24.3681 218.039 25.2467C218.31 26.0985 218.701 26.8429 219.212 27.48C219.722 28.1171 220.352 28.6202 221.1 28.9892C221.876 29.3314 222.783 29.4996 223.823 29.4936C225.37 29.4848 226.727 29.037 227.896 28.1503C229.09 27.2368 230.283 25.8566 231.472 24.0097L232.555 24.5635C231.419 26.4367 230.161 27.9373 228.781 29.0652C227.4 30.1665 225.724 30.7228 223.75 30.7341ZM248.334 30.5933C244.201 30.617 241.233 29.2873 239.431 26.6042L240.507 25.798C241.367 27.0731 242.439 28.0003 243.723 28.5797C245.006 29.1323 246.567 29.4034 248.407 29.3929C250.621 29.3802 252.378 28.9168 253.68 28.0027C255.008 27.0884 255.667 25.7379 255.656 23.9513C255.649 22.698 255.244 21.8069 254.441 21.2782C253.638 20.7228 252.529 20.3824 251.115 20.2572L247.993 19.9551C247.193 19.8797 246.446 19.7506 245.751 19.5679C245.057 19.3585 244.442 19.0687 243.906 18.6985C243.397 18.328 242.995 17.8503 242.698 17.2654C242.401 16.6804 242.25 15.9612 242.246 15.1079C242.239 14.0413 242.448 13.1201 242.87 12.3443C243.292 11.5685 243.862 10.9386 244.579 10.4545C245.323 9.94354 246.174 9.57866 247.133 9.35983C248.118 9.11419 249.157 8.98823 250.251 8.98197C251.291 8.97602 252.211 9.06408 253.012 9.24616C253.84 9.40143 254.574 9.62389 255.216 9.91356C255.858 10.2032 256.406 10.5468 256.862 10.9442C257.344 11.3414 257.76 11.7524 258.109 12.177L257.074 13.063C256.805 12.6912 256.483 12.333 256.108 11.9885C255.732 11.6173 255.264 11.3 254.702 11.0365C254.141 10.7731 253.486 10.5635 252.739 10.4077C251.991 10.252 251.124 10.177 250.137 10.1826C248.111 10.1942 246.513 10.6034 245.344 11.4101C244.176 12.2168 243.596 13.4201 243.605 15.0201C243.612 16.3001 244.018 17.2045 244.821 17.7332C245.624 18.262 246.746 18.5889 248.186 18.714L251.268 19.0163C252.042 19.0919 252.776 19.221 253.47 19.4037C254.165 19.5864 254.766 19.863 255.275 20.2334C255.811 20.6037 256.227 21.0813 256.523 21.6663C256.847 22.2511 257.011 22.9702 257.016 23.8235C257.022 24.9435 256.801 25.9314 256.353 26.7873C255.904 27.6166 255.295 28.3134 254.525 28.8778C253.754 29.4422 252.837 29.8608 251.772 30.1336C250.707 30.433 249.561 30.5863 248.334 30.5933Z" fill="#1E1E1E" fill-opacity="0.5"/>
</svg>
