<svg width="257" height="32" viewBox="0 0 257 32" fill="none" xmlns="http://www.w3.org/2000/svg">
<path d="M11.5391 4.82296L7.25175 31.4879L5.81177 31.4962L10.0992 4.83121L0.299329 4.88732L0.491997 3.60619L21.5317 3.48573L21.339 4.76685L11.5391 4.82296ZM28.4758 31.3664L31.6044 11.9082L24.8045 11.9471L24.9977 10.746L33.1575 10.6993L32.5402 14.6629L32.6602 14.6622C33.03 14.0467 33.4269 13.4978 33.8508 13.0153C34.2746 12.5062 34.7522 12.0902 35.2837 11.7671C35.8417 11.4173 36.4668 11.147 37.1591 10.9564C37.8513 10.7657 38.6641 10.6677 39.5974 10.6624L43.9573 10.6374L43.7649 11.9586L39.325 11.984C37.565 11.9941 36.0344 12.4828 34.7333 13.4503C34.1226 13.9071 33.5527 14.5104 33.0236 15.2601C32.4944 15.9832 32.1527 16.8518 31.9985 17.866L29.8358 31.3586L28.4758 31.3664ZM60.4596 31.1833L61.1928 26.499L61.0728 26.4997C60.3084 28.0508 59.3422 29.3097 58.1744 30.2764C57.0331 31.2162 55.5558 31.6914 53.7425 31.7018C52.6225 31.7082 51.6348 31.5272 50.7793 31.1587C49.9237 30.7636 49.2006 30.2211 48.61 29.5311C48.046 28.841 47.6146 28.0168 47.3158 27.0585C47.0168 26.0735 46.864 24.9944 46.8573 23.8211C46.8467 21.9811 47.05 20.2332 47.4672 18.5775C47.8844 16.9217 48.5028 15.4648 49.3222 14.2068C50.1417 12.9487 51.1494 11.9563 52.3452 11.2294C53.5676 10.4757 54.9521 10.0945 56.4988 10.0856C58.2587 10.0755 59.6876 10.454 60.7853 11.2211C61.8829 11.9615 62.6353 12.9572 63.0425 14.2082L63.2025 14.2073L63.7814 10.5239L65.1414 10.5161L61.8196 31.1755L60.4596 31.1833ZM53.9754 30.4604C54.8554 30.4554 55.6679 30.3174 56.4131 30.0464C57.1847 29.7487 57.9153 29.2778 58.605 28.6339C59.3212 27.9631 59.9831 27.1326 60.5908 26.1425C61.1983 25.1256 61.6051 23.9899 61.8113 22.7354L62.7387 17.05C62.8414 16.3561 62.7975 15.663 62.6068 14.9707C62.4429 14.2783 62.1194 13.6668 61.6363 13.1363C61.1531 12.579 60.4973 12.1428 59.6688 11.8275C58.8402 11.4856 57.8525 11.3179 56.7059 11.3245C55.6125 11.3307 54.6138 11.5498 53.7096 11.9816C52.8054 12.4135 52.0087 13.0047 51.3197 13.7553C50.6573 14.5058 50.1024 15.389 49.6548 16.4049C49.2073 17.4208 48.8936 18.516 48.7136 19.6904L48.3662 21.8924C48.2631 22.5063 48.2135 23.1599 48.2175 23.8533C48.2228 24.7866 48.3344 25.6526 48.5523 26.4514C48.7969 27.25 49.1476 27.9547 49.6045 28.5654C50.0611 29.1495 50.6505 29.6128 51.3724 29.9553C52.0944 30.2978 52.9621 30.4662 53.9754 30.4604ZM71.4438 31.1204L74.7656 10.461L76.1256 10.4533L75.3921 15.0975L75.5521 15.0966C76.3163 13.4922 77.2558 12.2335 78.3706 11.3204C79.4854 10.4073 80.9227 9.94578 82.6827 9.9357C84.4427 9.92562 85.8056 10.4245 86.7713 11.4323C87.737 12.4135 88.225 13.8107 88.2354 15.624C88.2375 15.9973 88.2131 16.3841 88.162 16.7844C88.1376 17.1846 88.0999 17.5848 88.0489 17.9851L85.9236 31.0375L84.5636 31.0453L86.6496 18.1131C86.7008 17.7395 86.7386 17.3526 86.763 16.9525C86.814 16.5522 86.8385 16.1787 86.8365 15.832C86.8187 12.7121 85.3164 11.1606 82.3298 11.1777C81.3965 11.1831 80.491 11.3883 79.6133 11.7933C78.7354 12.1717 77.9391 12.8162 77.2243 13.727C77.039 13.9681 76.8274 14.2626 76.5894 14.6107C76.3512 14.932 76.1134 15.3201 75.876 15.7748C75.6385 16.2028 75.4146 16.6841 75.2043 17.2186C75.0205 17.7264 74.877 18.2739 74.7737 18.8611L72.8038 31.1126L71.4438 31.1204ZM103.43 31.4173C99.2972 31.4409 96.3295 30.1112 94.5274 27.4282L95.6028 26.622C96.4635 27.8971 97.5355 28.8243 98.8188 29.4036C100.102 29.9563 101.664 30.2274 103.504 30.2168C105.717 30.2041 107.474 29.7407 108.776 28.8266C110.104 27.9123 110.763 26.5619 110.753 24.7752C110.745 23.5219 110.34 22.6309 109.537 22.1021C108.734 21.5467 107.625 21.2064 106.211 21.0812L103.09 20.779C102.289 20.7036 101.542 20.5746 100.847 20.3919C100.153 20.1825 99.5377 19.8927 99.0022 19.5224C98.4934 19.152 98.0907 18.6743 97.794 18.0893C97.4973 17.5043 97.3465 16.7852 97.3417 15.9319C97.3356 14.8652 97.5436 13.944 97.9658 13.1682C98.3881 12.3925 98.9578 11.7625 99.6751 11.2784C100.419 10.7675 101.27 10.4026 102.229 10.1838C103.214 9.93814 104.253 9.81219 105.347 9.80593C106.387 9.79998 107.307 9.88804 108.108 10.0701C108.936 10.2254 109.67 10.4479 110.312 10.7375C110.954 11.0272 111.502 11.3707 111.958 11.7681C112.44 12.1654 112.856 12.5763 113.205 13.001L112.17 13.8869C111.901 13.5151 111.579 13.157 111.204 12.8124C110.829 12.4413 110.36 12.1239 109.799 11.8605C109.237 11.597 108.582 11.3874 107.835 11.2317C107.087 11.076 106.22 11.0009 105.234 11.0066C103.207 11.0182 101.609 11.4274 100.441 12.2341C99.2718 13.0408 98.692 14.2441 98.7012 15.8441C98.7085 17.1241 99.1137 18.0284 99.9167 18.5572C100.72 19.0859 101.842 19.4128 103.282 19.5379L106.364 19.8403C107.138 19.9158 107.872 20.045 108.566 20.2277C109.261 20.4104 109.862 20.6869 110.371 21.0573C110.907 21.4276 111.323 21.9052 111.619 22.4902C111.943 23.075 112.107 23.7941 112.112 24.6474C112.118 25.7674 111.897 26.7554 111.449 27.6113C111 28.4405 110.391 29.1374 109.621 29.7018C108.851 30.2662 107.933 30.6848 106.868 30.9576C105.803 31.257 104.657 31.4102 103.43 31.4173ZM125.054 31.2934C124.654 31.2957 124.347 31.1775 124.132 30.9387C123.918 30.7266 123.81 30.4339 123.807 30.0606C123.807 29.9272 123.819 29.7538 123.844 29.5403C123.87 29.3269 123.908 29.0333 123.959 28.6597L128.929 2.39079L120.849 2.43705L121.042 1.23592L130.522 1.18165L125.126 29.813L125.567 29.9705L135.566 22.7931L136.291 23.669L127.965 29.7168C127.195 30.2545 126.611 30.6445 126.212 30.8868C125.814 31.1558 125.428 31.2913 125.054 31.2934ZM156.396 30.634L157.129 25.9497L157.009 25.9504C156.244 27.5015 155.278 28.7604 154.11 29.7271C152.969 30.6669 151.492 31.1421 149.678 31.1525C148.558 31.1589 147.571 30.9779 146.715 30.6094C145.86 30.2143 145.137 29.6718 144.546 28.9818C143.982 28.2917 143.551 27.4675 143.252 26.5092C142.953 25.5242 142.8 24.4451 142.793 23.2717C142.783 21.4318 142.986 19.6839 143.403 18.0282C143.82 16.3724 144.439 14.9155 145.258 13.6575C146.078 12.3994 147.085 11.407 148.281 10.6801C149.504 9.92644 150.888 9.54517 152.435 9.53632C154.195 9.52624 155.624 9.90473 156.721 10.6718C157.819 11.4122 158.571 12.4079 158.978 13.6589L159.138 13.658L159.717 9.97463L161.077 9.96684L157.756 30.6262L156.396 30.634ZM149.911 29.9111C150.791 29.9061 151.604 29.7681 152.349 29.4971C153.121 29.1994 153.851 28.7285 154.541 28.0846C155.257 27.4138 155.919 26.5833 156.527 25.5932C157.134 24.5763 157.541 23.4406 157.747 22.1861L158.675 16.5007C158.777 15.8068 158.733 15.1137 158.543 14.4214C158.379 13.729 158.055 13.1175 157.572 12.587C157.089 12.0297 156.433 11.5935 155.605 11.2782C154.776 10.9363 153.788 10.7686 152.642 10.7752C151.548 10.7814 150.55 11.0005 149.646 11.4323C148.741 11.8642 147.945 12.4554 147.256 13.206C146.593 13.9565 146.038 14.8397 145.591 15.8556C145.143 16.8715 144.83 17.9667 144.65 19.1411L144.302 21.3431C144.199 21.957 144.149 22.6106 144.153 23.304C144.159 24.2373 144.27 25.1033 144.488 25.9021C144.733 26.7007 145.084 27.4054 145.54 28.0161C145.997 28.6002 146.586 29.0635 147.308 29.406C148.03 29.7485 148.898 29.9169 149.911 29.9111ZM172.902 31.0195C172.502 31.0218 172.182 30.9169 171.941 30.705C171.726 30.4929 171.618 30.2268 171.616 29.9068C171.615 29.6935 171.614 29.4802 171.612 29.2668C171.638 29.0534 171.689 28.7331 171.767 28.3059L174.628 11.0893L167.108 11.1323L167.302 9.9312L173.541 9.89547C174.421 9.89043 174.939 9.44746 175.094 8.56656L176.02 2.60116L177.38 2.59338L176.221 9.88013L186.301 9.82241L186.108 11.0235L175.988 11.0815L172.974 29.499L173.375 29.6968L184.016 22.9557L184.702 23.9118L175.854 29.5226C175.137 30.0067 174.565 30.3699 174.14 30.6124C173.715 30.8815 173.302 31.0172 172.902 31.0195ZM201.889 3.29306C201.355 3.29611 200.995 3.20484 200.807 3.01925C200.619 2.83365 200.525 2.62086 200.523 2.38086C200.522 2.22086 200.561 1.98064 200.639 1.66018C200.717 1.31307 200.876 1.04549 201.115 0.85745C201.353 0.642745 201.699 0.534095 202.153 0.5315C202.686 0.528446 203.047 0.619717 203.234 0.805313C203.422 0.990907 203.517 1.2037 203.518 1.4437C203.519 1.6037 203.48 1.84392 203.402 2.16437C203.324 2.51149 203.166 2.7924 202.927 3.00711C202.688 3.19515 202.342 3.29046 201.889 3.29306ZM197.526 30.8785C197.1 30.8809 196.779 30.7628 196.564 30.524C196.35 30.3119 196.241 30.0192 196.239 29.6458C196.239 29.5125 196.251 29.3524 196.277 29.1656C196.302 28.9788 196.354 28.6585 196.431 28.2047L199.692 10.9458L191.572 10.9923L191.766 9.79113L201.285 9.73662L197.598 29.3581L197.959 29.556L207.878 22.4191L208.603 23.2949L200.437 29.2618C199.667 29.7995 199.083 30.2029 198.684 30.4719C198.286 30.7408 197.9 30.8764 197.526 30.8785ZM222.75 30.7341C221.524 30.7411 220.443 30.5473 219.507 30.1526C218.571 29.758 217.782 29.2158 217.138 28.5262C216.493 27.8098 216.009 26.9726 215.683 26.0144C215.358 25.0296 215.191 23.9639 215.185 22.8172C215.173 20.7106 215.402 18.8159 215.872 17.1332C216.369 15.4237 217.054 13.9797 217.928 12.8014C218.828 11.6229 219.902 10.7234 221.152 10.1029C222.429 9.45556 223.827 9.12754 225.347 9.11884C226.573 9.11182 227.654 9.30563 228.59 9.70028C229.526 10.0949 230.315 10.6504 230.96 11.3667C231.604 12.0564 232.088 12.8936 232.414 13.8785C232.739 14.8366 232.906 15.889 232.912 17.0357C232.924 19.169 232.682 21.077 232.185 22.7599C231.714 24.4426 231.029 25.8732 230.129 27.0518C229.256 28.2301 228.181 29.1429 226.905 29.7903C225.655 30.4108 224.27 30.7254 222.75 30.7341ZM222.823 29.4936C225.117 29.4805 226.952 28.7366 228.331 27.2621C229.709 25.7608 230.617 23.7022 231.055 21.0864L231.403 19.0043C231.454 18.604 231.492 18.2705 231.518 18.0037C231.543 17.7102 231.554 17.3368 231.551 16.8834C231.546 15.9235 231.407 15.0442 231.136 14.2458C230.891 13.4472 230.514 12.7693 230.004 12.2122C229.494 11.6285 228.838 11.1789 228.037 10.8635C227.261 10.5212 226.34 10.3532 225.274 10.3593C222.98 10.3724 221.145 11.1296 219.767 12.6308C218.388 14.1054 217.48 16.1507 217.042 18.7666L216.694 20.8486C216.643 21.2489 216.605 21.5958 216.58 21.8892C216.554 22.1561 216.543 22.5161 216.546 22.9695C216.551 23.9294 216.676 24.8087 216.921 25.6074C217.192 26.4058 217.583 27.0969 218.093 27.6807C218.603 28.2378 219.245 28.6874 220.021 29.0297C220.822 29.3451 221.757 29.4997 222.823 29.4936ZM239.332 30.1591L242.653 9.49975L244.013 9.49197L243.28 14.1362L243.44 14.1353C244.204 12.5309 245.144 11.2722 246.258 10.3591C247.373 9.44606 248.811 8.98449 250.571 8.97442C252.331 8.96434 253.693 9.46321 254.659 10.471C255.625 11.4522 256.113 12.8494 256.123 14.6627C256.125 15.036 256.101 15.4229 256.05 15.8232C256.026 16.2233 255.988 16.6235 255.937 17.0238L253.811 30.0762L252.451 30.084L254.537 17.1518C254.589 16.7782 254.626 16.3913 254.651 15.9912C254.702 15.5909 254.726 15.2174 254.724 14.8707C254.707 11.7508 253.204 10.1994 250.218 10.2165C249.284 10.2218 248.379 10.427 247.501 10.832C246.623 11.2104 245.827 11.855 245.112 12.7657C244.927 13.0068 244.715 13.3013 244.477 13.6494C244.239 13.9707 244.001 14.3588 243.764 14.8135C243.526 15.2415 243.302 15.7228 243.092 16.2574C242.908 16.7651 242.765 17.3126 242.662 17.8998L240.692 30.1513L239.332 30.1591Z" fill="#1E1E1E" fill-opacity="0.5"/>
</svg>
